<svg id="svg" version="1.1" xmlns="http://www.w3.org/2000/svg" xmlns:xlink="http://www.w3.org/1999/xlink" width="400" height="400" viewBox="0, 0, 400,400"><g id="svgg"><path id="path0" d="M0.000 200.000 L 0.000 400.000 200.000 400.000 L 400.000 400.000 400.000 200.000 L 400.000 0.000 200.000 0.000 L 0.000 0.000 0.000 200.000 M137.900 110.584 C 142.355 114.980,146.000 118.772,146.000 119.010 C 146.000 120.199,140.890 123.600,139.103 123.600 C 138.179 123.600,112.042 97.103,111.777 95.897 C 111.489 94.585,112.918 92.754,115.600 90.996 L 117.000 90.079 123.400 96.335 C 126.920 99.776,133.445 106.188,137.900 110.584 M188.107 116.753 C 189.698 117.168,192.148 117.617,193.552 117.753 C 195.023 117.894,196.652 118.338,197.399 118.799 C 198.111 119.240,199.144 119.600,199.693 119.600 C 200.243 119.600,201.128 119.943,201.660 120.361 C 202.193 120.780,203.396 121.330,204.335 121.582 C 205.273 121.835,206.137 122.291,206.254 122.597 C 206.371 122.902,206.969 123.261,207.583 123.396 C 208.197 123.531,209.114 124.082,209.619 124.621 C 210.125 125.159,210.721 125.600,210.943 125.600 C 211.640 125.600,217.898 132.387,218.435 133.724 C 218.716 134.426,219.273 135.429,219.673 135.954 C 221.742 138.668,220.270 140.400,215.895 140.400 L 212.647 140.400 211.123 138.766 C 210.285 137.868,209.600 136.950,209.600 136.727 C 209.600 136.202,205.536 132.416,204.962 132.407 C 204.721 132.403,204.217 132.061,203.842 131.647 C 203.468 131.233,202.360 130.588,201.380 130.214 C 200.401 129.840,199.600 129.384,199.600 129.200 C 199.600 129.016,198.657 128.664,197.505 128.417 C 196.353 128.170,195.031 127.719,194.566 127.415 C 192.460 126.035,173.573 124.461,172.254 125.555 C 171.992 125.773,170.343 126.070,168.589 126.216 C 166.727 126.371,164.761 126.803,163.865 127.253 C 163.021 127.677,161.458 128.210,160.391 128.439 C 159.325 128.668,158.246 129.103,157.994 129.407 C 157.742 129.711,156.900 130.169,156.122 130.426 C 155.344 130.683,154.413 131.149,154.054 131.462 C 153.694 131.775,152.475 132.789,151.344 133.716 C 150.213 134.642,148.442 136.525,147.410 137.900 L 145.532 140.400 142.195 140.400 C 137.749 140.400,136.457 138.979,138.195 136.000 C 138.516 135.450,139.074 134.372,139.435 133.604 C 139.796 132.835,140.476 131.829,140.946 131.367 C 141.416 130.906,142.340 129.873,143.000 129.073 C 143.660 128.272,144.353 127.613,144.540 127.609 C 144.726 127.604,145.382 127.105,145.997 126.500 C 147.710 124.815,149.361 123.675,150.505 123.388 C 151.075 123.245,151.636 122.883,151.750 122.585 C 151.865 122.286,152.698 121.843,153.601 121.600 C 154.503 121.357,155.593 120.807,156.021 120.379 C 156.461 119.939,157.345 119.600,158.053 119.600 C 158.742 119.600,159.881 119.245,160.584 118.810 C 161.335 118.346,163.167 117.862,165.031 117.635 C 166.774 117.424,169.100 116.992,170.200 116.675 C 173.399 115.754,184.457 115.803,188.107 116.753 M238.158 119.567 C 240.637 119.842,242.579 120.285,243.358 120.753 C 244.041 121.163,245.379 121.597,246.331 121.716 C 247.283 121.835,248.363 122.201,248.731 122.529 C 249.099 122.857,250.157 123.327,251.083 123.574 C 252.009 123.820,252.884 124.212,253.027 124.444 C 253.171 124.676,254.078 125.205,255.044 125.619 C 256.010 126.033,256.800 126.538,256.800 126.742 C 256.800 126.946,257.212 127.217,257.715 127.343 C 258.792 127.613,263.822 132.474,265.057 134.438 C 269.454 141.430,269.357 142.149,263.993 142.316 C 260.280 142.431,257.600 141.242,257.600 139.479 C 257.600 138.922,253.580 135.239,252.000 134.348 C 247.308 131.702,244.719 130.489,243.262 130.256 C 242.353 130.111,240.888 129.616,240.005 129.156 C 238.544 128.394,237.524 128.301,228.501 128.106 C 217.850 127.876,218.629 128.035,216.067 125.575 C 215.480 125.012,214.681 124.431,214.291 124.285 C 213.901 124.138,213.469 123.699,213.330 123.309 C 213.192 122.919,212.803 122.279,212.466 121.888 C 211.070 120.263,213.469 119.591,223.200 118.878 C 227.064 118.595,231.053 118.779,238.158 119.567 M191.247 132.700 C 192.043 133.195,193.144 133.600,193.693 133.600 C 194.243 133.600,195.121 133.934,195.646 134.342 C 196.171 134.750,197.230 135.291,198.000 135.544 C 200.417 136.340,202.598 138.718,201.759 139.645 C 200.962 140.526,157.985 140.848,156.374 139.986 C 154.890 139.192,157.055 136.567,160.056 135.520 C 160.751 135.278,161.653 134.747,162.060 134.340 C 162.467 133.933,163.295 133.599,163.900 133.598 C 164.505 133.596,165.540 133.303,166.200 132.946 C 168.373 131.770,169.700 131.651,179.800 131.726 C 189.409 131.797,189.857 131.835,191.247 132.700 M235.260 132.471 C 235.823 132.840,236.979 133.272,237.830 133.432 C 239.855 133.812,244.187 136.049,246.184 137.746 L 247.769 139.092 246.504 139.746 C 245.429 140.302,243.679 140.400,234.789 140.400 L 224.338 140.400 223.199 139.260 C 222.506 138.567,221.964 137.509,221.816 136.560 C 221.682 135.702,221.319 134.508,221.009 133.907 C 220.490 132.901,220.515 132.763,221.323 132.183 C 222.610 131.258,233.763 131.488,235.260 132.471 M283.987 142.650 C 284.673 143.228,285.593 144.353,286.031 145.150 C 286.469 145.948,287.355 147.410,288.000 148.400 C 289.163 150.184,290.071 151.682,292.000 155.000 C 293.975 158.396,294.846 159.828,296.012 161.600 C 296.664 162.590,297.465 163.973,297.793 164.673 C 298.120 165.373,298.574 166.060,298.802 166.201 C 299.029 166.342,299.668 167.299,300.222 168.328 C 300.776 169.358,301.666 170.920,302.200 171.800 C 302.735 172.680,303.445 173.973,303.780 174.673 C 304.114 175.373,304.573 176.060,304.800 176.200 C 305.026 176.340,305.575 177.117,306.018 177.927 C 306.462 178.737,307.451 180.390,308.215 181.600 C 308.979 182.810,309.874 184.340,310.204 185.000 C 310.533 185.660,311.340 187.010,311.997 188.000 C 314.771 192.180,315.333 194.327,314.167 196.298 C 312.531 199.066,309.675 198.489,307.378 194.926 C 306.553 193.647,305.456 191.960,304.939 191.178 C 304.423 190.397,304.000 189.564,304.000 189.327 C 304.000 189.091,303.717 188.663,303.371 188.376 C 303.025 188.089,302.350 187.148,301.871 186.287 C 299.872 182.689,297.493 178.689,295.993 176.400 C 295.344 175.410,294.596 174.150,294.330 173.600 C 294.065 173.050,293.028 171.340,292.025 169.800 C 290.018 166.716,289.154 165.244,288.228 163.327 C 287.889 162.627,287.426 161.940,287.198 161.799 C 286.971 161.658,286.337 160.701,285.789 159.672 C 285.241 158.642,284.574 157.440,284.306 157.000 C 283.602 155.841,281.996 153.218,281.000 151.600 C 280.526 150.830,279.657 149.470,279.069 148.578 C 276.089 144.059,280.024 139.316,283.987 142.650 M120.371 144.185 C 122.733 145.406,122.621 147.623,119.996 151.600 C 119.343 152.590,118.445 154.120,118.000 155.000 C 117.555 155.880,116.660 157.410,116.009 158.400 C 114.496 160.705,112.101 164.733,110.106 168.333 C 109.614 169.220,109.026 170.060,108.800 170.200 C 108.573 170.340,108.120 171.027,107.793 171.727 C 107.465 172.427,106.660 173.810,106.003 174.800 C 105.346 175.790,104.461 177.345,104.037 178.256 C 103.613 179.167,103.069 180.034,102.827 180.183 C 102.586 180.333,102.120 181.027,101.793 181.727 C 101.465 182.427,100.660 183.810,100.003 184.800 C 99.346 185.790,98.471 187.323,98.059 188.206 C 97.647 189.089,97.015 190.056,96.655 190.355 C 96.295 190.653,96.000 191.034,96.000 191.201 C 96.000 191.690,93.482 195.729,92.046 197.541 C 87.929 202.740,82.749 198.353,86.348 192.715 C 86.810 191.992,87.536 190.655,87.961 189.744 C 88.386 188.833,88.931 187.966,89.173 187.817 C 89.414 187.667,89.880 186.973,90.207 186.273 C 90.535 185.573,91.336 184.190,91.988 183.200 C 93.095 181.518,94.136 179.818,95.620 177.266 C 97.293 174.387,98.967 171.627,100.026 170.000 C 100.670 169.010,101.467 167.660,101.796 167.000 C 102.126 166.340,103.021 164.810,103.785 163.600 C 104.549 162.390,105.538 160.737,105.982 159.927 C 106.425 159.117,106.974 158.340,107.200 158.200 C 107.427 158.060,107.886 157.373,108.220 156.673 C 108.555 155.973,109.265 154.680,109.800 153.800 C 110.334 152.920,111.214 151.379,111.754 150.375 C 112.295 149.371,113.022 148.314,113.369 148.026 C 113.716 147.738,114.000 147.236,114.000 146.911 C 114.000 144.662,117.991 142.954,120.371 144.185 M273.496 149.887 C 273.778 150.735,273.676 151.252,273.029 152.241 C 272.573 152.938,271.840 154.109,271.400 154.843 C 270.960 155.577,270.206 156.813,269.725 157.589 C 268.497 159.569,267.572 161.173,266.308 163.518 C 265.707 164.632,265.029 165.658,264.802 165.799 C 264.574 165.940,264.120 166.627,263.793 167.327 C 263.465 168.027,262.664 169.410,262.012 170.400 C 260.846 172.172,259.975 173.604,258.000 177.000 C 256.025 180.396,255.154 181.828,253.988 183.600 C 253.336 184.590,252.540 185.959,252.220 186.642 C 251.900 187.325,250.993 188.450,250.205 189.142 L 248.772 190.400 202.046 190.400 C 151.180 190.400,153.313 190.500,151.973 188.056 C 151.534 187.255,150.549 185.610,149.785 184.400 C 149.021 183.190,148.126 181.660,147.796 181.000 C 147.467 180.340,146.670 178.990,146.026 178.000 C 144.967 176.373,143.293 173.613,141.620 170.734 C 140.154 168.214,139.098 166.486,137.993 164.800 C 137.344 163.810,136.592 162.550,136.322 162.000 C 136.052 161.450,135.419 160.491,134.916 159.869 C 134.412 159.247,134.000 158.537,134.000 158.291 C 134.000 158.045,133.519 157.113,132.931 156.222 C 132.343 155.330,131.443 153.960,130.931 153.178 C 129.913 151.625,129.729 150.031,130.480 149.280 C 130.850 148.910,147.290 148.800,202.047 148.800 L 273.133 148.800 273.496 149.887 M272.221 175.339 C 272.071 176.693,271.510 179.839,270.974 182.332 C 270.438 184.825,270.000 187.440,270.000 188.145 C 270.000 188.849,269.715 190.410,269.367 191.613 C 269.018 192.816,268.493 195.420,268.199 197.400 C 267.906 199.380,267.387 202.080,267.046 203.400 C 266.705 204.720,266.239 207.330,266.010 209.200 C 265.780 211.070,265.322 213.492,264.991 214.581 C 264.660 215.671,264.213 218.120,263.997 220.023 C 263.782 221.927,263.350 224.208,263.038 225.091 C 262.727 225.975,262.276 228.307,262.037 230.273 C 261.798 232.239,261.349 234.737,261.040 235.824 C 260.731 236.911,260.366 238.457,260.229 239.260 C 259.820 241.648,259.961 241.623,247.575 241.506 L 236.248 241.400 235.328 239.025 C 234.822 237.719,234.292 236.009,234.150 235.225 C 233.830 233.453,231.429 228.288,230.608 227.607 C 230.274 227.329,229.997 226.899,229.993 226.651 C 229.953 224.074,218.985 215.262,214.000 213.802 C 213.010 213.512,211.390 212.962,210.400 212.579 C 203.986 210.101,189.492 212.509,183.449 217.056 C 182.905 217.465,181.578 218.430,180.500 219.200 C 178.630 220.535,175.164 224.431,173.560 227.000 C 173.149 227.660,172.641 228.470,172.432 228.800 C 171.554 230.188,169.997 234.052,168.887 237.600 L 167.697 241.400 156.085 241.506 L 144.473 241.612 143.675 239.106 C 142.797 236.351,142.181 233.374,141.789 230.000 C 141.648 228.790,141.278 226.911,140.966 225.824 C 140.653 224.737,140.202 222.239,139.963 220.273 C 139.724 218.307,139.273 215.975,138.962 215.091 C 138.650 214.208,138.218 211.927,138.003 210.023 C 137.787 208.120,137.340 205.671,137.009 204.581 C 136.678 203.492,136.216 201.070,135.983 199.200 C 135.749 197.330,135.299 194.900,134.982 193.800 C 134.665 192.700,134.149 190.000,133.836 187.800 C 133.523 185.600,132.995 182.869,132.664 181.731 C 131.730 178.522,131.613 172.663,132.480 172.487 C 132.950 172.392,133.481 172.945,134.195 174.274 C 134.763 175.334,135.660 176.920,136.188 177.800 C 136.715 178.680,137.525 180.030,137.987 180.800 C 138.449 181.570,139.349 183.010,139.986 184.000 C 141.496 186.344,143.935 190.439,145.863 193.866 C 146.926 195.754,148.391 197.114,151.000 198.635 L 153.000 199.800 201.800 199.800 L 250.600 199.800 252.400 198.858 C 254.608 197.701,257.007 195.468,258.047 193.600 C 258.476 192.830,259.359 191.390,260.009 190.400 C 260.660 189.410,261.555 187.880,262.000 187.000 C 262.445 186.120,263.340 184.590,263.991 183.600 C 264.641 182.610,265.545 181.170,266.000 180.400 C 266.455 179.630,267.359 178.190,268.009 177.200 C 268.660 176.210,269.551 174.627,269.989 173.682 C 271.277 170.909,272.604 171.893,272.221 175.339 M206.464 218.795 C 207.859 219.232,209.394 219.592,209.876 219.595 C 210.735 219.600,215.253 221.734,216.411 222.682 C 216.735 222.947,217.614 223.667,218.365 224.282 C 219.671 225.352,222.314 227.934,223.400 229.200 C 223.683 229.530,224.207 230.430,224.564 231.200 C 224.922 231.970,225.464 233.050,225.770 233.600 C 228.265 238.088,228.400 238.680,228.400 245.179 C 228.400 250.442,228.287 251.586,227.629 252.974 C 227.204 253.868,226.655 255.374,226.408 256.321 C 226.160 257.267,225.698 258.141,225.379 258.263 C 225.061 258.386,224.800 258.707,224.800 258.978 C 224.800 260.663,217.168 268.400,215.506 268.400 C 215.195 268.400,214.517 268.850,214.000 269.400 C 213.483 269.950,212.684 270.400,212.224 270.400 C 211.764 270.400,210.671 270.801,209.794 271.290 C 207.412 272.621,197.247 272.874,194.702 271.665 C 193.766 271.221,192.256 270.663,191.347 270.426 C 190.437 270.188,189.480 269.737,189.219 269.423 C 188.958 269.109,188.211 268.734,187.559 268.591 C 186.907 268.448,186.088 267.896,185.740 267.365 C 185.393 266.834,184.908 266.400,184.663 266.400 C 184.196 266.400,179.600 261.674,179.600 261.194 C 179.600 261.042,179.166 260.449,178.636 259.876 C 178.105 259.304,177.551 258.288,177.404 257.618 C 177.257 256.948,176.993 256.400,176.817 256.400 C 176.318 256.400,175.673 254.414,175.389 252.000 C 175.246 250.790,174.858 248.838,174.525 247.662 C 174.193 246.486,174.013 245.136,174.125 244.662 C 174.236 244.188,174.707 241.935,175.170 239.656 C 175.668 237.204,176.336 235.099,176.806 234.502 C 177.243 233.946,177.600 233.201,177.600 232.845 C 177.600 230.676,186.657 221.600,188.821 221.600 C 189.164 221.600,190.041 221.160,190.769 220.623 C 191.608 220.004,192.919 219.546,194.347 219.373 C 195.586 219.223,197.050 218.859,197.600 218.566 C 199.102 217.764,203.542 217.879,206.464 218.795 M166.642 249.160 C 167.883 249.917,168.398 251.203,168.401 253.550 C 168.402 254.128,168.741 255.155,169.155 255.833 C 169.569 256.512,170.037 257.682,170.197 258.433 C 170.475 259.748,172.166 262.752,173.330 264.000 C 173.637 264.330,174.119 265.050,174.400 265.600 C 175.806 268.355,181.961 273.378,186.400 275.393 C 187.170 275.742,188.520 276.359,189.400 276.764 C 190.815 277.415,192.491 277.750,198.600 278.608 C 203.530 279.300,211.849 277.609,216.400 274.990 C 216.950 274.673,217.985 274.139,218.700 273.802 C 219.415 273.465,220.000 273.016,220.000 272.805 C 220.000 272.594,220.495 272.159,221.100 271.840 C 222.565 271.067,227.223 266.508,228.089 265.000 C 228.820 263.725,229.238 263.047,230.690 260.778 C 231.191 259.997,231.602 259.097,231.604 258.778 C 231.606 258.460,232.050 257.300,232.591 256.200 C 233.132 255.100,233.581 253.642,233.587 252.960 C 233.631 248.607,234.214 248.400,246.390 248.400 C 258.646 248.400,258.859 248.517,257.022 254.200 C 256.737 255.080,256.381 257.225,256.229 258.967 C 256.078 260.709,255.698 262.748,255.385 263.499 C 255.071 264.249,254.626 266.423,254.396 268.331 C 254.165 270.239,253.640 273.150,253.229 274.800 C 252.818 276.450,252.355 279.060,252.200 280.600 C 252.045 282.140,251.670 284.136,251.366 285.035 C 251.062 285.934,250.550 288.672,250.228 291.121 C 249.906 293.569,249.448 295.937,249.209 296.383 C 248.970 296.830,248.735 298.141,248.687 299.297 L 248.600 301.400 267.131 301.600 L 285.662 301.800 287.031 303.294 C 288.885 305.318,288.867 306.760,286.966 308.607 L 285.531 310.000 187.726 310.000 L 89.920 310.000 88.560 308.640 C 86.481 306.561,87.158 303.004,89.826 301.990 C 90.461 301.749,102.747 301.600,122.039 301.600 C 157.781 301.600,154.219 302.102,152.877 297.253 C 152.412 295.574,151.842 292.670,151.609 290.800 C 151.377 288.930,150.935 286.676,150.626 285.790 C 150.318 284.905,149.947 282.835,149.802 281.190 C 149.657 279.546,149.203 277.030,148.794 275.600 C 148.385 274.170,147.932 271.830,147.788 270.400 C 147.643 268.970,147.185 266.450,146.770 264.800 C 146.355 263.150,145.843 260.270,145.633 258.400 C 145.423 256.530,144.970 254.331,144.626 253.513 C 143.784 251.511,143.838 250.162,144.800 249.200 C 145.998 248.002,164.687 247.968,166.642 249.160 M310.732 303.069 C 312.600 304.939,312.554 307.358,310.621 308.900 L 309.243 310.000 302.088 310.000 L 294.934 310.000 293.667 308.423 C 292.118 306.497,292.081 305.565,293.480 303.731 C 295.021 301.711,295.467 301.614,302.832 301.712 L 309.464 301.800 310.732 303.069 " stroke="none" fill="#d35b5b" fill-rule="evenodd"></path><path id="path1" d="M167.143 118.415 C 165.681 118.586,164.061 118.995,163.543 119.324 C 163.024 119.654,161.790 120.047,160.800 120.199 C 159.810 120.351,158.100 120.891,157.000 121.398 C 155.900 121.905,154.550 122.527,154.000 122.779 C 153.450 123.032,152.365 123.635,151.589 124.119 C 150.813 124.604,149.570 125.360,148.826 125.800 C 148.083 126.240,147.163 126.895,146.782 127.255 C 146.402 127.615,145.817 128.065,145.482 128.255 C 144.626 128.740,140.400 133.967,140.400 134.539 C 140.400 134.799,140.040 135.684,139.600 136.504 C 138.242 139.038,138.386 139.200,142.000 139.200 C 143.760 139.200,145.200 139.060,145.200 138.889 C 145.200 137.614,149.962 132.695,153.200 130.625 C 154.190 129.993,155.457 129.166,156.016 128.788 C 156.574 128.410,157.654 127.969,158.416 127.807 C 159.177 127.646,160.345 127.183,161.012 126.779 C 161.679 126.374,163.460 125.846,164.970 125.605 C 166.480 125.364,168.005 125.018,168.358 124.836 C 170.933 123.513,183.966 123.245,188.200 124.428 C 189.080 124.673,191.243 125.186,193.007 125.567 C 194.770 125.948,196.660 126.543,197.207 126.890 C 197.753 127.237,198.783 127.643,199.495 127.792 C 200.208 127.940,200.903 128.243,201.039 128.464 C 201.176 128.685,202.078 129.205,203.044 129.619 C 204.010 130.033,204.800 130.546,204.800 130.759 C 204.800 130.972,205.156 131.259,205.591 131.397 C 206.776 131.773,209.717 134.335,210.400 135.586 C 212.035 138.581,212.956 139.200,215.774 139.200 L 218.400 139.200 218.391 137.900 C 218.381 136.391,217.224 133.646,216.263 132.851 C 215.899 132.549,215.598 132.099,215.595 131.851 C 215.581 130.539,209.202 125.556,204.800 123.419 C 203.150 122.618,201.170 121.633,200.400 121.231 C 199.630 120.828,198.190 120.369,197.200 120.211 C 196.210 120.053,194.988 119.662,194.485 119.342 C 192.563 118.123,174.806 117.521,167.143 118.415 M220.400 120.426 C 217.430 120.580,214.955 120.727,214.900 120.753 C 214.371 121.003,215.021 123.083,215.904 123.965 C 218.019 126.080,218.486 126.183,226.000 126.192 C 230.784 126.197,233.271 126.355,233.856 126.691 C 234.327 126.961,236.287 127.360,238.211 127.579 C 240.244 127.810,242.362 128.317,243.267 128.788 C 244.124 129.235,245.134 129.603,245.512 129.606 C 245.891 129.609,246.650 129.874,247.200 130.195 C 247.750 130.516,248.773 131.051,249.474 131.384 C 252.137 132.649,258.400 137.631,258.400 138.484 C 258.400 139.973,261.142 141.600,263.640 141.594 C 266.720 141.587,267.638 141.180,266.698 140.240 C 266.350 139.893,265.937 139.021,265.781 138.304 C 265.143 135.375,256.044 126.400,253.713 126.400 C 253.490 126.400,252.823 126.018,252.230 125.552 C 251.637 125.086,250.400 124.535,249.482 124.329 C 248.563 124.123,247.539 123.713,247.206 123.419 C 246.873 123.125,245.176 122.593,243.436 122.238 C 241.695 121.882,240.051 121.408,239.782 121.185 C 238.866 120.425,228.375 120.014,220.400 120.426 M171.800 132.650 C 171.360 132.762,170.460 133.093,169.800 133.386 C 169.140 133.678,167.790 134.048,166.800 134.208 C 164.455 134.587,159.609 136.842,159.604 137.556 C 159.602 137.862,159.285 138.351,158.900 138.643 C 158.315 139.087,161.620 139.175,179.000 139.175 C 196.380 139.175,199.685 139.087,199.100 138.643 C 198.715 138.351,198.400 137.831,198.400 137.487 C 198.400 137.117,197.789 136.667,196.900 136.383 C 196.075 136.119,194.860 135.584,194.200 135.194 C 193.540 134.804,192.190 134.359,191.200 134.204 C 190.210 134.050,188.860 133.646,188.200 133.307 C 186.997 132.687,173.731 132.156,171.800 132.650 M222.538 132.652 C 221.902 132.913,222.553 135.159,223.923 137.427 L 224.994 139.200 235.197 139.175 C 241.420 139.159,245.063 139.013,244.535 138.801 C 244.060 138.609,243.556 138.091,243.416 137.651 C 243.269 137.186,242.539 136.650,241.681 136.374 C 240.866 136.113,239.923 135.658,239.584 135.363 C 239.245 135.069,237.985 134.625,236.784 134.379 C 235.583 134.132,233.456 133.585,232.058 133.165 C 229.691 132.453,223.800 132.136,222.538 132.652 M195.127 220.373 C 193.877 220.547,192.566 220.977,192.214 221.329 C 191.861 221.682,190.968 222.137,190.229 222.341 C 186.923 223.254,178.400 231.611,178.400 233.940 C 178.400 234.261,177.909 235.530,177.308 236.761 C 176.250 238.930,176.217 239.205,176.237 245.600 L 176.257 252.200 177.768 255.200 C 178.600 256.850,179.611 258.810,180.016 259.555 C 180.946 261.265,184.842 265.567,185.477 265.586 C 185.740 265.594,186.190 265.934,186.477 266.343 C 186.765 266.751,187.450 267.219,188.000 267.383 C 188.550 267.546,189.630 268.095,190.400 268.603 C 191.170 269.111,192.610 269.650,193.600 269.802 C 194.590 269.953,195.818 270.342,196.328 270.666 C 198.485 272.035,207.598 271.129,211.800 269.128 C 215.287 267.467,216.639 266.489,219.626 263.466 C 223.461 259.584,225.305 256.679,225.829 253.690 C 225.972 252.871,226.355 251.778,226.679 251.262 C 227.604 249.789,227.802 243.486,227.007 240.800 C 226.649 239.590,226.117 237.676,225.825 236.547 C 225.533 235.418,224.913 234.113,224.447 233.647 C 223.981 233.181,223.600 232.553,223.600 232.251 C 223.600 231.459,219.707 226.694,218.565 226.087 C 218.034 225.805,217.600 225.403,217.600 225.193 C 217.600 224.983,217.015 224.566,216.300 224.267 C 215.585 223.968,214.753 223.426,214.451 223.062 C 214.149 222.698,213.716 222.400,213.490 222.400 C 213.263 222.400,212.070 221.919,210.839 221.330 C 208.392 220.161,200.235 219.664,195.127 220.373 " stroke="none" fill="#faf4f4" fill-rule="evenodd"></path><path id="path2" d="M116.015 92.065 C 114.140 92.773,112.275 95.019,112.779 95.961 C 113.024 96.418,118.973 102.535,126.000 109.556 L 138.776 122.321 140.288 121.970 C 141.120 121.777,141.918 121.615,142.063 121.610 C 142.207 121.604,142.950 121.022,143.713 120.316 L 145.100 119.031 136.747 110.816 C 116.637 91.037,117.256 91.597,116.015 92.065 M146.038 250.300 C 145.292 250.914,145.238 251.173,145.601 252.400 C 145.828 253.170,146.193 255.494,146.411 257.563 C 146.629 259.633,147.006 261.567,147.250 261.860 C 147.493 262.153,147.941 264.418,148.246 266.893 C 148.551 269.368,149.065 272.205,149.388 273.197 C 149.712 274.188,150.087 276.260,150.221 277.800 C 150.356 279.340,150.802 281.770,151.212 283.200 C 151.623 284.630,152.150 287.446,152.383 289.459 C 152.616 291.471,153.057 293.721,153.363 294.459 C 154.207 296.489,154.603 301.074,153.998 301.803 C 153.566 302.323,149.481 302.400,122.240 302.400 C 93.531 302.400,90.897 302.455,89.989 303.077 C 87.759 304.603,87.681 307.097,89.823 308.360 L 91.246 309.200 188.044 309.200 L 284.843 309.200 286.221 308.100 C 287.979 306.698,288.001 305.510,286.300 303.860 L 285.000 302.600 266.827 302.488 C 253.503 302.406,248.500 302.249,248.079 301.900 C 247.341 301.287,247.710 296.622,248.760 293.300 C 249.160 292.035,249.612 289.575,249.766 287.833 C 249.920 286.091,250.312 284.027,250.638 283.248 C 250.964 282.468,251.422 279.933,251.657 277.615 C 251.892 275.297,252.341 272.867,252.654 272.215 C 252.967 271.563,253.395 269.373,253.605 267.348 C 253.815 265.322,254.283 262.796,254.644 261.733 C 255.780 258.388,256.449 251.142,255.699 250.300 C 254.568 249.030,237.021 249.315,234.876 250.639 C 234.807 250.681,234.592 251.844,234.397 253.223 C 234.202 254.601,233.691 256.465,233.261 257.365 C 232.831 258.264,232.182 259.630,231.819 260.400 C 230.668 262.844,229.938 264.062,229.158 264.842 C 228.741 265.259,228.400 265.830,228.400 266.111 C 228.400 267.039,220.307 274.400,219.285 274.400 C 219.087 274.400,218.601 274.756,218.207 275.192 C 217.813 275.628,216.891 276.097,216.158 276.234 C 215.425 276.372,214.442 276.817,213.973 277.224 C 213.504 277.630,212.283 278.072,211.260 278.206 C 210.237 278.339,208.590 278.741,207.600 279.098 C 205.100 280.000,196.241 279.993,194.102 279.087 C 193.276 278.737,191.763 278.341,190.740 278.207 C 189.717 278.073,188.496 277.630,188.027 277.224 C 187.558 276.817,186.575 276.372,185.842 276.234 C 185.109 276.097,184.187 275.628,183.793 275.192 C 183.399 274.756,182.907 274.400,182.701 274.400 C 181.461 274.400,174.675 267.975,172.773 265.000 C 171.929 263.680,170.978 262.330,170.659 262.000 C 170.341 261.670,169.865 260.590,169.603 259.600 C 169.340 258.610,168.888 257.530,168.597 257.200 C 168.306 256.870,167.962 255.925,167.834 255.100 C 167.705 254.275,167.502 252.970,167.382 252.201 C 167.007 249.794,166.147 249.600,155.864 249.600 C 147.907 249.600,146.792 249.679,146.038 250.300 M296.000 302.680 C 294.190 303.333,293.389 306.557,294.629 308.200 C 295.182 308.933,295.783 309.011,301.804 309.127 L 308.376 309.254 309.788 308.127 C 311.675 306.621,311.674 305.299,309.786 303.641 L 308.372 302.400 302.486 302.432 C 299.249 302.449,296.330 302.561,296.000 302.680 " stroke="none" fill="#212d3d" fill-rule="evenodd"></path><path id="path3" d="M115.600 90.996 C 112.918 92.754,111.489 94.585,111.777 95.897 C 112.042 97.103,138.179 123.600,139.103 123.600 C 140.890 123.600,146.000 120.199,146.000 119.010 C 146.000 118.608,139.006 111.591,123.400 96.335 L 117.000 90.079 115.600 90.996 M122.809 97.200 C 125.880 100.170,132.153 106.297,136.747 110.816 L 145.100 119.031 143.713 120.316 C 142.950 121.022,142.207 121.604,142.063 121.610 C 141.918 121.615,141.120 121.777,140.288 121.970 L 138.776 122.321 126.000 109.556 C 111.245 94.814,111.862 95.605,113.682 93.784 C 116.584 90.883,116.079 90.693,122.809 97.200 M279.726 142.003 C 277.714 142.814,277.392 146.035,279.069 148.578 C 279.657 149.470,280.526 150.830,281.000 151.600 C 281.996 153.218,283.602 155.841,284.306 157.000 C 284.574 157.440,285.241 158.642,285.789 159.672 C 286.337 160.701,286.971 161.658,287.198 161.799 C 287.426 161.940,287.889 162.627,288.228 163.327 C 289.154 165.244,290.018 166.716,292.025 169.800 C 293.028 171.340,294.065 173.050,294.330 173.600 C 294.596 174.150,295.344 175.410,295.993 176.400 C 297.493 178.689,299.872 182.689,301.871 186.287 C 302.350 187.148,303.025 188.089,303.371 188.376 C 303.717 188.663,304.000 189.091,304.000 189.327 C 304.000 189.564,304.423 190.397,304.939 191.178 C 305.456 191.960,306.553 193.647,307.378 194.926 C 309.675 198.489,312.531 199.066,314.167 196.298 C 315.333 194.327,314.771 192.180,311.997 188.000 C 311.340 187.010,310.533 185.660,310.204 185.000 C 309.874 184.340,308.979 182.810,308.215 181.600 C 307.451 180.390,306.462 178.737,306.018 177.927 C 305.575 177.117,305.026 176.340,304.800 176.200 C 304.573 176.060,304.114 175.373,303.780 174.673 C 303.445 173.973,302.735 172.680,302.200 171.800 C 301.666 170.920,300.776 169.358,300.222 168.328 C 299.668 167.299,299.029 166.342,298.802 166.201 C 298.574 166.060,298.120 165.373,297.793 164.673 C 297.465 163.973,296.664 162.590,296.012 161.600 C 294.846 159.828,293.975 158.396,292.000 155.000 C 290.071 151.682,289.163 150.184,288.000 148.400 C 287.355 147.410,286.469 145.948,286.031 145.150 C 284.414 142.205,282.096 141.048,279.726 142.003 M115.360 144.960 C 114.612 145.708,114.000 146.586,114.000 146.911 C 114.000 147.236,113.716 147.738,113.369 148.026 C 113.022 148.314,112.295 149.371,111.754 150.375 C 111.214 151.379,110.334 152.920,109.800 153.800 C 109.265 154.680,108.555 155.973,108.220 156.673 C 107.886 157.373,107.427 158.060,107.200 158.200 C 106.974 158.340,106.425 159.117,105.982 159.927 C 105.538 160.737,104.549 162.390,103.785 163.600 C 103.021 164.810,102.126 166.340,101.796 167.000 C 101.467 167.660,100.670 169.010,100.026 170.000 C 98.967 171.627,97.293 174.387,95.620 177.266 C 94.136 179.818,93.095 181.518,91.988 183.200 C 91.336 184.190,90.535 185.573,90.207 186.273 C 89.880 186.973,89.414 187.667,89.173 187.817 C 88.931 187.966,88.386 188.833,87.961 189.744 C 87.536 190.655,86.810 191.992,86.348 192.715 C 82.749 198.353,87.929 202.740,92.046 197.541 C 93.482 195.729,96.000 191.690,96.000 191.201 C 96.000 191.034,96.295 190.653,96.655 190.355 C 97.015 190.056,97.647 189.089,98.059 188.206 C 98.471 187.323,99.346 185.790,100.003 184.800 C 100.660 183.810,101.465 182.427,101.793 181.727 C 102.120 181.027,102.586 180.333,102.827 180.183 C 103.069 180.034,103.613 179.167,104.037 178.256 C 104.461 177.345,105.346 175.790,106.003 174.800 C 106.660 173.810,107.465 172.427,107.793 171.727 C 108.120 171.027,108.573 170.340,108.800 170.200 C 109.026 170.060,109.614 169.220,110.106 168.333 C 112.101 164.733,114.496 160.705,116.009 158.400 C 116.660 157.410,117.555 155.880,118.000 155.000 C 118.445 154.120,119.343 152.590,119.996 151.600 C 122.621 147.623,122.733 145.406,120.371 144.185 C 118.456 143.195,116.882 143.438,115.360 144.960 M130.480 149.280 C 129.729 150.031,129.913 151.625,130.931 153.178 C 131.443 153.960,132.343 155.330,132.931 156.222 C 133.519 157.113,134.000 158.045,134.000 158.291 C 134.000 158.537,134.412 159.247,134.916 159.869 C 135.419 160.491,136.052 161.450,136.322 162.000 C 136.592 162.550,137.344 163.810,137.993 164.800 C 139.098 166.486,140.154 168.214,141.620 170.734 C 143.293 173.613,144.967 176.373,146.026 178.000 C 146.670 178.990,147.467 180.340,147.796 181.000 C 148.126 181.660,149.021 183.190,149.785 184.400 C 150.549 185.610,151.534 187.255,151.973 188.056 C 153.313 190.500,151.180 190.400,202.046 190.400 L 248.772 190.400 250.205 189.142 C 250.993 188.450,251.900 187.325,252.220 186.642 C 252.540 185.959,253.336 184.590,253.988 183.600 C 255.154 181.828,256.025 180.396,258.000 177.000 C 259.975 173.604,260.846 172.172,262.012 170.400 C 262.664 169.410,263.465 168.027,263.793 167.327 C 264.120 166.627,264.574 165.940,264.802 165.799 C 265.029 165.658,265.707 164.632,266.308 163.518 C 267.572 161.173,268.497 159.569,269.725 157.589 C 270.206 156.813,270.960 155.577,271.400 154.843 C 271.840 154.109,272.573 152.938,273.029 152.241 C 273.676 151.252,273.778 150.735,273.496 149.887 L 273.133 148.800 202.047 148.800 C 147.290 148.800,130.850 148.910,130.480 149.280 M269.989 173.682 C 269.551 174.627,268.660 176.210,268.009 177.200 C 267.359 178.190,266.455 179.630,266.000 180.400 C 265.545 181.170,264.641 182.610,263.991 183.600 C 263.340 184.590,262.445 186.120,262.000 187.000 C 261.555 187.880,260.660 189.410,260.009 190.400 C 259.359 191.390,258.476 192.830,258.047 193.600 C 257.007 195.468,254.608 197.701,252.400 198.858 L 250.600 199.800 201.800 199.800 L 153.000 199.800 151.000 198.635 C 148.391 197.114,146.926 195.754,145.863 193.866 C 143.935 190.439,141.496 186.344,139.986 184.000 C 139.349 183.010,138.449 181.570,137.987 180.800 C 137.525 180.030,136.715 178.680,136.188 177.800 C 135.660 176.920,134.763 175.334,134.195 174.274 C 133.481 172.945,132.950 172.392,132.480 172.487 C 131.613 172.663,131.730 178.522,132.664 181.731 C 132.995 182.869,133.523 185.600,133.836 187.800 C 134.149 190.000,134.665 192.700,134.982 193.800 C 135.299 194.900,135.749 197.330,135.983 199.200 C 136.216 201.070,136.678 203.492,137.009 204.581 C 137.340 205.671,137.787 208.120,138.003 210.023 C 138.218 211.927,138.650 214.208,138.962 215.091 C 139.273 215.975,139.724 218.307,139.963 220.273 C 140.202 222.239,140.653 224.737,140.966 225.824 C 141.278 226.911,141.648 228.790,141.789 230.000 C 142.181 233.374,142.797 236.351,143.675 239.106 L 144.473 241.612 156.085 241.506 L 167.697 241.400 168.887 237.600 C 169.997 234.052,171.554 230.188,172.432 228.800 C 172.641 228.470,173.149 227.660,173.560 227.000 C 175.164 224.431,178.630 220.535,180.500 219.200 C 181.578 218.430,182.905 217.465,183.449 217.056 C 189.492 212.509,203.986 210.101,210.400 212.579 C 211.390 212.962,213.010 213.512,214.000 213.802 C 218.985 215.262,229.953 224.074,229.993 226.651 C 229.997 226.899,230.274 227.329,230.608 227.607 C 231.429 228.288,233.830 233.453,234.150 235.225 C 234.292 236.009,234.822 237.719,235.328 239.025 L 236.248 241.400 247.575 241.506 C 259.961 241.623,259.820 241.648,260.229 239.260 C 260.366 238.457,260.731 236.911,261.040 235.824 C 261.349 234.737,261.798 232.239,262.037 230.273 C 262.276 228.307,262.727 225.975,263.038 225.091 C 263.350 224.208,263.782 221.927,263.997 220.023 C 264.213 218.120,264.660 215.671,264.991 214.581 C 265.322 213.492,265.780 211.070,266.010 209.200 C 266.239 207.330,266.705 204.720,267.046 203.400 C 267.387 202.080,267.906 199.380,268.199 197.400 C 268.493 195.420,269.018 192.816,269.367 191.613 C 269.715 190.410,270.000 188.849,270.000 188.145 C 270.000 187.440,270.438 184.825,270.974 182.332 C 272.536 175.068,272.676 172.976,271.641 172.422 C 270.864 172.006,270.714 172.121,269.989 173.682 M144.800 249.200 C 143.838 250.162,143.784 251.511,144.626 253.513 C 144.970 254.331,145.423 256.530,145.633 258.400 C 145.843 260.270,146.355 263.150,146.770 264.800 C 147.185 266.450,147.643 268.970,147.788 270.400 C 147.932 271.830,148.385 274.170,148.794 275.600 C 149.203 277.030,149.657 279.546,149.802 281.190 C 149.947 282.835,150.318 284.905,150.626 285.790 C 150.935 286.676,151.377 288.930,151.609 290.800 C 151.842 292.670,152.412 295.574,152.877 297.253 C 154.219 302.102,157.781 301.600,122.039 301.600 C 102.747 301.600,90.461 301.749,89.826 301.990 C 87.158 303.004,86.481 306.561,88.560 308.640 L 89.920 310.000 187.726 310.000 L 285.531 310.000 286.966 308.607 C 288.867 306.760,288.885 305.318,287.031 303.294 L 285.662 301.800 267.131 301.600 L 248.600 301.400 248.687 299.297 C 248.735 298.141,248.970 296.830,249.209 296.383 C 249.448 295.937,249.906 293.569,250.228 291.121 C 250.550 288.672,251.062 285.934,251.366 285.035 C 251.670 284.136,252.045 282.140,252.200 280.600 C 252.355 279.060,252.818 276.450,253.229 274.800 C 253.640 273.150,254.165 270.239,254.396 268.331 C 254.626 266.423,255.071 264.249,255.385 263.499 C 255.698 262.748,256.078 260.709,256.229 258.967 C 256.381 257.225,256.737 255.080,257.022 254.200 C 258.859 248.517,258.646 248.400,246.390 248.400 C 234.214 248.400,233.631 248.607,233.587 252.960 C 233.581 253.642,233.132 255.100,232.591 256.200 C 232.050 257.300,231.606 258.460,231.604 258.778 C 231.602 259.097,231.191 259.997,230.690 260.778 C 229.238 263.047,228.820 263.725,228.089 265.000 C 227.223 266.508,222.565 271.067,221.100 271.840 C 220.495 272.159,220.000 272.594,220.000 272.805 C 220.000 273.016,219.415 273.465,218.700 273.802 C 217.985 274.139,216.950 274.673,216.400 274.990 C 211.849 277.609,203.530 279.300,198.600 278.608 C 192.491 277.750,190.815 277.415,189.400 276.764 C 188.520 276.359,187.170 275.742,186.400 275.393 C 181.961 273.378,175.806 268.355,174.400 265.600 C 174.119 265.050,173.637 264.330,173.330 264.000 C 172.166 262.752,170.475 259.748,170.197 258.433 C 170.037 257.682,169.569 256.512,169.155 255.833 C 168.741 255.155,168.402 254.128,168.401 253.550 C 168.394 248.626,167.836 248.403,155.500 248.401 C 146.132 248.400,145.557 248.443,144.800 249.200 M166.002 250.201 C 166.851 250.640,167.223 251.179,167.382 252.201 C 167.502 252.970,167.705 254.275,167.834 255.100 C 167.962 255.925,168.306 256.870,168.597 257.200 C 168.888 257.530,169.340 258.610,169.603 259.600 C 169.865 260.590,170.341 261.670,170.659 262.000 C 170.978 262.330,171.929 263.680,172.773 265.000 C 174.675 267.975,181.461 274.400,182.701 274.400 C 182.907 274.400,183.399 274.756,183.793 275.192 C 184.187 275.628,185.109 276.097,185.842 276.234 C 186.575 276.372,187.558 276.817,188.027 277.224 C 188.496 277.630,189.717 278.073,190.740 278.207 C 191.763 278.341,193.276 278.737,194.102 279.087 C 196.241 279.993,205.100 280.000,207.600 279.098 C 208.590 278.741,210.237 278.339,211.260 278.206 C 212.283 278.072,213.504 277.630,213.973 277.224 C 214.442 276.817,215.425 276.372,216.158 276.234 C 216.891 276.097,217.813 275.628,218.207 275.192 C 218.601 274.756,219.087 274.400,219.285 274.400 C 220.307 274.400,228.400 267.039,228.400 266.111 C 228.400 265.830,228.741 265.259,229.158 264.842 C 229.938 264.062,230.668 262.844,231.819 260.400 C 232.182 259.630,232.831 258.264,233.261 257.365 C 233.691 256.465,234.202 254.601,234.397 253.223 C 234.592 251.844,234.807 250.681,234.876 250.639 C 237.021 249.315,254.568 249.030,255.699 250.300 C 256.449 251.142,255.780 258.388,254.644 261.733 C 254.283 262.796,253.815 265.322,253.605 267.348 C 253.395 269.373,252.967 271.563,252.654 272.215 C 252.341 272.867,251.892 275.297,251.657 277.615 C 251.422 279.933,250.964 282.468,250.638 283.248 C 250.312 284.027,249.920 286.091,249.766 287.833 C 249.612 289.575,249.160 292.035,248.760 293.300 C 247.710 296.622,247.341 301.287,248.079 301.900 C 248.500 302.249,253.503 302.406,266.827 302.488 L 285.000 302.600 286.300 303.860 C 288.001 305.510,287.979 306.698,286.221 308.100 L 284.843 309.200 188.044 309.200 L 91.246 309.200 89.823 308.360 C 87.681 307.097,87.759 304.603,89.989 303.077 C 90.897 302.455,93.531 302.400,122.240 302.400 C 149.481 302.400,153.566 302.323,153.998 301.803 C 154.603 301.074,154.207 296.489,153.363 294.459 C 153.057 293.721,152.616 291.471,152.383 289.459 C 152.150 287.446,151.623 284.630,151.212 283.200 C 150.802 281.770,150.356 279.340,150.221 277.800 C 150.087 276.260,149.712 274.188,149.388 273.197 C 149.065 272.205,148.551 269.368,148.246 266.893 C 147.941 264.418,147.493 262.153,147.250 261.860 C 147.006 261.567,146.629 259.633,146.411 257.563 C 146.193 255.494,145.828 253.170,145.601 252.400 C 145.238 251.173,145.292 250.914,146.038 250.300 C 147.224 249.324,164.144 249.240,166.002 250.201 M295.380 301.970 C 292.644 303.122,291.840 306.151,293.667 308.423 L 294.934 310.000 302.088 310.000 L 309.243 310.000 310.621 308.900 C 312.554 307.358,312.600 304.939,310.732 303.069 L 309.464 301.800 302.832 301.712 C 299.184 301.664,295.831 301.780,295.380 301.970 M309.786 303.641 C 311.674 305.299,311.675 306.621,309.788 308.127 L 308.376 309.254 301.804 309.127 C 294.431 308.985,294.029 308.823,294.022 306.000 C 294.013 302.882,294.986 302.472,302.486 302.432 L 308.372 302.400 309.786 303.641 " stroke="none" fill="#761516" fill-rule="evenodd"></path><path id="path4" d="M170.200 116.675 C 169.100 116.992,166.774 117.424,165.031 117.635 C 163.167 117.862,161.335 118.346,160.584 118.810 C 159.881 119.245,158.742 119.600,158.053 119.600 C 157.345 119.600,156.461 119.939,156.021 120.379 C 155.593 120.807,154.503 121.357,153.601 121.600 C 152.698 121.843,151.865 122.286,151.750 122.585 C 151.636 122.883,151.075 123.245,150.505 123.388 C 149.361 123.675,147.710 124.815,145.997 126.500 C 145.382 127.105,144.726 127.604,144.540 127.609 C 144.353 127.613,143.660 128.272,143.000 129.073 C 142.340 129.873,141.416 130.906,140.946 131.367 C 140.476 131.829,139.796 132.835,139.435 133.604 C 139.074 134.372,138.516 135.450,138.195 136.000 C 136.457 138.979,137.749 140.400,142.195 140.400 L 145.532 140.400 147.410 137.900 C 148.442 136.525,150.213 134.642,151.344 133.716 C 152.475 132.789,153.694 131.775,154.054 131.462 C 154.413 131.149,155.344 130.683,156.122 130.426 C 156.900 130.169,157.742 129.711,157.994 129.407 C 158.246 129.103,159.325 128.668,160.391 128.439 C 161.458 128.210,163.021 127.677,163.865 127.253 C 164.761 126.803,166.727 126.371,168.589 126.216 C 170.343 126.070,171.992 125.773,172.254 125.555 C 173.573 124.461,192.460 126.035,194.566 127.415 C 195.031 127.719,196.353 128.170,197.505 128.417 C 198.657 128.664,199.600 129.016,199.600 129.200 C 199.600 129.384,200.401 129.840,201.380 130.214 C 202.360 130.588,203.468 131.233,203.842 131.647 C 204.217 132.061,204.721 132.403,204.962 132.407 C 205.536 132.416,209.600 136.202,209.600 136.727 C 209.600 136.950,210.285 137.868,211.123 138.766 L 212.647 140.400 215.895 140.400 C 220.270 140.400,221.742 138.668,219.673 135.954 C 219.273 135.429,218.716 134.426,218.435 133.724 C 217.898 132.387,211.640 125.600,210.943 125.600 C 210.721 125.600,210.125 125.159,209.619 124.621 C 209.114 124.082,208.197 123.531,207.583 123.396 C 206.969 123.261,206.371 122.902,206.254 122.597 C 206.137 122.291,205.273 121.835,204.335 121.582 C 203.396 121.330,202.193 120.780,201.660 120.361 C 201.128 119.943,200.243 119.600,199.693 119.600 C 199.144 119.600,198.111 119.240,197.399 118.799 C 196.652 118.338,195.023 117.894,193.552 117.753 C 192.148 117.617,189.698 117.168,188.107 116.753 C 184.457 115.803,173.399 115.754,170.200 116.675 M190.285 118.384 C 192.091 118.592,193.981 119.023,194.485 119.342 C 194.988 119.662,196.210 120.053,197.200 120.211 C 198.190 120.369,199.630 120.828,200.400 121.231 C 201.170 121.633,203.150 122.618,204.800 123.419 C 209.202 125.556,215.581 130.539,215.595 131.851 C 215.598 132.099,215.899 132.549,216.263 132.851 C 217.224 133.646,218.381 136.391,218.391 137.900 L 218.400 139.200 215.774 139.200 C 212.956 139.200,212.035 138.581,210.400 135.586 C 209.717 134.335,206.776 131.773,205.591 131.397 C 205.156 131.259,204.800 130.972,204.800 130.759 C 204.800 130.546,204.010 130.033,203.044 129.619 C 202.078 129.205,201.176 128.685,201.039 128.464 C 200.903 128.243,200.208 127.940,199.495 127.792 C 198.783 127.643,197.753 127.237,197.207 126.890 C 196.660 126.543,194.770 125.948,193.007 125.567 C 191.243 125.186,189.080 124.673,188.200 124.428 C 183.966 123.245,170.933 123.513,168.358 124.836 C 168.005 125.018,166.480 125.364,164.970 125.605 C 163.460 125.846,161.679 126.374,161.012 126.779 C 160.345 127.183,159.177 127.646,158.416 127.807 C 157.654 127.969,156.574 128.410,156.016 128.788 C 155.457 129.166,154.190 129.993,153.200 130.625 C 149.962 132.695,145.200 137.614,145.200 138.889 C 145.200 139.060,143.760 139.200,142.000 139.200 C 138.386 139.200,138.242 139.038,139.600 136.504 C 140.040 135.684,140.400 134.799,140.400 134.539 C 140.400 133.967,144.626 128.740,145.482 128.255 C 145.817 128.065,146.402 127.615,146.782 127.255 C 147.163 126.895,148.083 126.240,148.826 125.800 C 149.570 125.360,150.813 124.604,151.589 124.119 C 152.365 123.635,153.450 123.032,154.000 122.779 C 154.550 122.527,155.900 121.905,157.000 121.398 C 158.100 120.891,159.810 120.351,160.800 120.199 C 161.790 120.047,163.024 119.654,163.543 119.324 C 165.423 118.130,182.773 117.520,190.285 118.384 M223.200 118.878 C 213.469 119.591,211.070 120.263,212.466 121.888 C 212.803 122.279,213.192 122.919,213.330 123.309 C 213.469 123.699,213.901 124.138,214.291 124.285 C 214.681 124.431,215.480 125.012,216.067 125.575 C 218.629 128.035,217.850 127.876,228.501 128.106 C 237.524 128.301,238.544 128.394,240.005 129.156 C 240.888 129.616,242.353 130.111,243.262 130.256 C 244.719 130.489,247.308 131.702,252.000 134.348 C 253.580 135.239,257.600 138.922,257.600 139.479 C 257.600 141.242,260.280 142.431,263.993 142.316 C 269.357 142.149,269.454 141.430,265.057 134.438 C 263.822 132.474,258.792 127.613,257.715 127.343 C 257.212 127.217,256.800 126.946,256.800 126.742 C 256.800 126.538,256.010 126.033,255.044 125.619 C 254.078 125.205,253.171 124.676,253.027 124.444 C 252.884 124.212,252.009 123.820,251.083 123.574 C 250.157 123.327,249.099 122.857,248.731 122.529 C 248.363 122.201,247.283 121.835,246.331 121.716 C 245.379 121.597,244.041 121.163,243.358 120.753 C 241.324 119.530,229.417 118.423,223.200 118.878 M236.746 120.599 C 238.146 120.698,239.512 120.961,239.782 121.185 C 240.051 121.408,241.695 121.882,243.436 122.238 C 245.176 122.593,246.873 123.125,247.206 123.419 C 247.539 123.713,248.563 124.123,249.482 124.329 C 250.400 124.535,251.637 125.086,252.230 125.552 C 252.823 126.018,253.490 126.400,253.713 126.400 C 256.044 126.400,265.143 135.375,265.781 138.304 C 265.937 139.021,266.350 139.893,266.698 140.240 C 267.638 141.180,266.720 141.587,263.640 141.594 C 261.142 141.600,258.400 139.973,258.400 138.484 C 258.400 137.631,252.137 132.649,249.474 131.384 C 248.773 131.051,247.750 130.516,247.200 130.195 C 246.650 129.874,245.891 129.609,245.512 129.606 C 245.134 129.603,244.124 129.235,243.267 128.788 C 242.362 128.317,240.244 127.810,238.211 127.579 C 236.287 127.360,234.327 126.961,233.856 126.691 C 233.271 126.355,230.784 126.197,226.000 126.192 C 218.486 126.183,218.019 126.080,215.904 123.965 C 215.021 123.083,214.371 121.003,214.900 120.753 C 215.949 120.257,230.464 120.155,236.746 120.599 M168.600 131.974 C 167.940 132.152,166.860 132.589,166.200 132.946 C 165.540 133.303,164.505 133.596,163.900 133.598 C 163.295 133.599,162.467 133.933,162.060 134.340 C 161.653 134.747,160.751 135.278,160.056 135.520 C 157.055 136.567,154.890 139.192,156.374 139.986 C 157.985 140.848,200.962 140.526,201.759 139.645 C 202.598 138.718,200.417 136.340,198.000 135.544 C 197.230 135.291,196.171 134.750,195.646 134.342 C 195.121 133.934,194.243 133.600,193.693 133.600 C 193.144 133.600,192.043 133.195,191.247 132.700 C 189.708 131.743,171.619 131.163,168.600 131.974 M221.323 132.183 C 220.515 132.763,220.490 132.901,221.009 133.907 C 221.319 134.508,221.682 135.702,221.816 136.560 C 221.964 137.509,222.506 138.567,223.199 139.260 L 224.338 140.400 234.789 140.400 C 243.679 140.400,245.429 140.302,246.504 139.746 L 247.769 139.092 246.184 137.746 C 244.187 136.049,239.855 133.812,237.830 133.432 C 236.979 133.272,235.823 132.840,235.260 132.471 C 233.763 131.488,222.610 131.258,221.323 132.183 M188.200 133.307 C 188.860 133.646,190.210 134.050,191.200 134.204 C 192.190 134.359,193.540 134.804,194.200 135.194 C 194.860 135.584,196.075 136.119,196.900 136.383 C 197.789 136.667,198.400 137.117,198.400 137.487 C 198.400 137.831,198.715 138.351,199.100 138.643 C 199.685 139.087,196.380 139.175,179.000 139.175 C 161.620 139.175,158.315 139.087,158.900 138.643 C 159.285 138.351,159.602 137.862,159.604 137.556 C 159.609 136.842,164.455 134.587,166.800 134.208 C 167.790 134.048,169.140 133.678,169.800 133.386 C 171.831 132.487,172.379 132.442,179.800 132.567 C 185.320 132.661,187.280 132.833,188.200 133.307 M232.058 133.165 C 233.456 133.585,235.583 134.132,236.784 134.379 C 237.985 134.625,239.245 135.069,239.584 135.363 C 239.923 135.658,240.866 136.113,241.681 136.374 C 242.539 136.650,243.269 137.186,243.416 137.651 C 243.556 138.091,244.060 138.609,244.535 138.801 C 245.063 139.013,241.420 139.159,235.197 139.175 L 224.994 139.200 223.923 137.427 C 222.553 135.159,221.902 132.913,222.538 132.652 C 223.800 132.136,229.691 132.453,232.058 133.165 M197.600 218.566 C 197.050 218.859,195.586 219.223,194.347 219.373 C 192.919 219.546,191.608 220.004,190.769 220.623 C 190.041 221.160,189.164 221.600,188.821 221.600 C 186.657 221.600,177.600 230.676,177.600 232.845 C 177.600 233.201,177.243 233.946,176.806 234.502 C 176.336 235.099,175.668 237.204,175.170 239.656 C 174.707 241.935,174.236 244.188,174.125 244.662 C 174.013 245.136,174.193 246.486,174.525 247.662 C 174.858 248.838,175.246 250.790,175.389 252.000 C 175.673 254.414,176.318 256.400,176.817 256.400 C 176.993 256.400,177.257 256.948,177.404 257.618 C 177.551 258.288,178.105 259.304,178.636 259.876 C 179.166 260.449,179.600 261.042,179.600 261.194 C 179.600 261.674,184.196 266.400,184.663 266.400 C 184.908 266.400,185.393 266.834,185.740 267.365 C 186.088 267.896,186.907 268.448,187.559 268.591 C 188.211 268.734,188.958 269.109,189.219 269.423 C 189.480 269.737,190.437 270.188,191.347 270.426 C 192.256 270.663,193.766 271.221,194.702 271.665 C 197.247 272.874,207.412 272.621,209.794 271.290 C 210.671 270.801,211.764 270.400,212.224 270.400 C 212.684 270.400,213.483 269.950,214.000 269.400 C 214.517 268.850,215.195 268.400,215.506 268.400 C 217.168 268.400,224.800 260.663,224.800 258.978 C 224.800 258.707,225.061 258.386,225.379 258.263 C 225.698 258.141,226.160 257.267,226.408 256.321 C 226.655 255.374,227.204 253.868,227.629 252.974 C 228.287 251.586,228.400 250.442,228.400 245.179 C 228.400 238.680,228.265 238.088,225.770 233.600 C 225.464 233.050,224.922 231.970,224.564 231.200 C 224.207 230.430,223.683 229.530,223.400 229.200 C 222.314 227.934,219.671 225.352,218.365 224.282 C 217.614 223.667,216.735 222.947,216.411 222.682 C 215.253 221.734,210.735 219.600,209.876 219.595 C 209.394 219.592,207.859 219.232,206.464 218.795 C 203.542 217.879,199.102 217.764,197.600 218.566 M210.839 221.330 C 212.070 221.919,213.263 222.400,213.490 222.400 C 213.716 222.400,214.149 222.698,214.451 223.062 C 214.753 223.426,215.585 223.968,216.300 224.267 C 217.015 224.566,217.600 224.983,217.600 225.193 C 217.600 225.403,218.034 225.805,218.565 226.087 C 219.707 226.694,223.600 231.459,223.600 232.251 C 223.600 232.553,223.981 233.181,224.447 233.647 C 224.913 234.113,225.533 235.418,225.825 236.547 C 226.117 237.676,226.649 239.590,227.007 240.800 C 227.802 243.486,227.604 249.789,226.679 251.262 C 226.355 251.778,225.972 252.871,225.829 253.690 C 225.305 256.679,223.461 259.584,219.626 263.466 C 216.639 266.489,215.287 267.467,211.800 269.128 C 207.598 271.129,198.485 272.035,196.328 270.666 C 195.818 270.342,194.590 269.953,193.600 269.802 C 192.610 269.650,191.170 269.111,190.400 268.603 C 189.630 268.095,188.550 267.546,188.000 267.383 C 187.450 267.219,186.765 266.751,186.477 266.343 C 186.190 265.934,185.740 265.594,185.477 265.586 C 184.842 265.567,180.946 261.265,180.016 259.555 C 179.611 258.810,178.600 256.850,177.768 255.200 L 176.257 252.200 176.237 245.600 C 176.217 239.205,176.250 238.930,177.308 236.761 C 177.909 235.530,178.400 234.261,178.400 233.940 C 178.400 231.611,186.923 223.254,190.229 222.341 C 190.968 222.137,191.861 221.682,192.214 221.329 C 193.921 219.622,207.266 219.623,210.839 221.330 " stroke="none" fill="#e4acac" fill-rule="evenodd"></path></g></svg>