<svg id="svg" version="1.1" xmlns="http://www.w3.org/2000/svg" xmlns:xlink="http://www.w3.org/1999/xlink" width="400"
     height="400" viewBox="0, 0, 400,400">
    <g id="svgg">
        <path id="path0"
              d="M0.000 200.000 L 0.000 400.000 200.000 400.000 L 400.000 400.000 400.000 200.000 L 400.000 0.000 200.000 0.000 L 0.000 0.000 0.000 200.000 M149.476 56.495 L 159.951 66.946 158.876 68.228 C 155.705 72.007,155.428 71.863,144.049 60.473 C 132.884 49.297,133.071 49.582,135.310 47.229 C 137.693 44.725,137.647 44.694,149.476 56.495 M192.726 65.582 C 194.847 65.787,196.862 66.210,197.401 66.564 C 197.923 66.906,199.213 67.379,200.268 67.615 C 201.324 67.852,202.460 68.291,202.794 68.591 C 203.127 68.892,203.878 69.257,204.462 69.403 C 205.046 69.548,205.933 70.102,206.432 70.634 C 206.931 71.165,207.551 71.600,207.809 71.600 C 208.200 71.600,209.951 73.353,213.445 77.245 C 214.061 77.931,214.800 80.136,214.800 81.288 C 214.800 83.145,209.587 83.794,208.278 82.101 C 206.861 80.267,202.810 76.400,202.308 76.400 C 201.987 76.400,201.408 76.051,201.022 75.625 C 200.636 75.198,199.428 74.658,198.336 74.424 C 197.245 74.190,195.508 73.612,194.476 73.141 C 191.717 71.879,176.549 71.829,174.139 73.073 C 173.293 73.510,171.752 74.078,170.715 74.336 C 169.678 74.593,168.168 75.253,167.359 75.802 C 166.550 76.351,165.687 76.800,165.440 76.800 C 165.194 76.800,164.768 77.160,164.493 77.600 C 164.218 78.040,163.731 78.400,163.411 78.400 C 163.090 78.400,162.639 78.753,162.409 79.183 C 159.872 83.923,153.122 84.782,153.724 80.289 C 153.840 79.426,154.309 78.371,154.767 77.945 C 155.225 77.518,155.600 77.006,155.600 76.807 C 155.600 75.662,163.098 69.600,164.513 69.600 C 164.859 69.600,165.384 69.358,165.680 69.063 C 166.499 68.243,167.643 67.734,169.358 67.424 C 170.216 67.269,171.352 66.857,171.883 66.509 C 173.570 65.404,185.430 64.876,192.726 65.582 M233.257 68.500 C 234.435 69.049,236.057 69.616,236.860 69.760 C 237.663 69.904,238.532 70.277,238.792 70.590 C 239.052 70.903,239.881 71.363,240.635 71.612 C 241.389 71.860,242.191 72.410,242.417 72.832 C 242.643 73.254,243.063 73.600,243.350 73.600 C 243.937 73.600,248.153 77.634,249.441 79.428 C 251.833 82.761,250.680 85.499,247.085 85.023 C 244.859 84.727,243.600 84.197,243.600 83.554 C 243.600 82.929,238.951 78.400,238.310 78.400 C 238.005 78.400,237.145 77.950,236.400 77.400 C 235.655 76.850,234.692 76.400,234.261 76.400 C 233.830 76.400,232.486 75.931,231.274 75.358 C 229.204 74.378,228.629 74.306,221.743 74.151 C 213.551 73.966,213.410 73.923,210.292 70.615 C 207.540 67.697,209.452 67.188,222.457 67.376 C 230.714 67.495,231.212 67.547,233.257 68.500 M190.728 76.563 C 191.326 76.872,192.878 77.322,194.175 77.562 C 195.473 77.801,196.819 78.250,197.167 78.559 C 197.515 78.868,198.453 79.390,199.251 79.719 C 200.475 80.225,200.729 80.545,200.871 81.759 L 201.039 83.200 185.093 83.200 C 168.356 83.200,167.600 83.123,167.600 81.425 C 167.600 80.237,171.977 77.875,174.927 77.472 C 175.986 77.327,177.241 76.936,177.716 76.604 C 178.910 75.768,189.128 75.735,190.728 76.563 M224.284 76.604 C 224.759 76.936,226.014 77.327,227.073 77.472 C 231.811 78.120,235.999 81.516,233.626 82.786 C 231.962 83.677,219.432 83.302,217.366 82.300 L 215.510 81.400 215.729 79.272 C 215.849 78.102,216.162 76.887,216.423 76.572 C 217.103 75.753,223.104 75.778,224.284 76.604 M262.408 84.404 C 263.147 84.800,266.000 88.770,266.000 89.404 C 266.000 89.580,266.411 90.281,266.914 90.962 C 267.416 91.643,268.049 92.650,268.320 93.200 C 268.591 93.750,269.345 95.010,269.995 96.000 C 270.645 96.990,271.558 98.556,272.023 99.480 C 272.488 100.403,273.123 101.370,273.434 101.629 C 273.746 101.887,274.000 102.324,274.000 102.600 C 274.000 102.876,274.295 103.347,274.655 103.645 C 275.015 103.944,275.647 104.911,276.059 105.794 C 276.471 106.677,277.344 108.210,277.998 109.200 C 278.652 110.190,279.408 111.450,279.678 112.000 C 279.948 112.550,280.581 113.509,281.084 114.131 C 281.588 114.753,282.000 115.463,282.000 115.709 C 282.000 116.116,282.822 117.487,284.872 120.496 C 286.618 123.061,285.657 126.000,283.072 126.000 C 282.038 126.000,280.000 124.618,280.000 123.916 C 280.000 123.682,279.146 122.210,278.102 120.645 C 277.057 119.080,275.977 117.350,275.700 116.800 C 275.423 116.250,274.660 114.990,274.005 114.000 C 273.349 113.010,272.594 111.750,272.326 111.200 C 272.058 110.650,271.471 109.660,271.020 109.000 C 270.570 108.340,269.931 107.320,269.601 106.734 C 268.497 104.776,267.184 102.617,265.993 100.800 C 265.344 99.810,264.592 98.550,264.322 98.000 C 264.052 97.450,263.419 96.491,262.916 95.869 C 262.412 95.247,262.000 94.537,262.000 94.291 C 262.000 93.867,261.688 93.345,259.023 89.311 C 256.825 85.986,259.127 82.648,262.408 84.404 M140.537 85.976 C 142.099 86.570,142.320 88.496,141.037 90.346 C 140.467 91.169,140.000 92.045,140.000 92.291 C 140.000 92.537,139.588 93.247,139.084 93.869 C 138.581 94.491,137.948 95.450,137.678 96.000 C 137.408 96.550,136.652 97.810,135.998 98.800 C 135.344 99.790,134.471 101.323,134.059 102.206 C 133.647 103.089,133.015 104.056,132.655 104.355 C 132.295 104.653,132.000 105.124,132.000 105.400 C 132.000 105.676,131.746 106.113,131.434 106.371 C 131.123 106.630,130.488 107.597,130.023 108.520 C 129.558 109.444,128.645 111.010,127.995 112.000 C 127.345 112.990,126.591 114.250,126.320 114.800 C 126.049 115.350,125.416 116.357,124.914 117.038 C 124.411 117.719,124.000 118.429,124.000 118.616 C 124.000 118.804,123.519 119.687,122.931 120.578 C 122.343 121.470,121.410 122.920,120.858 123.800 C 118.629 127.353,116.806 128.239,115.058 126.619 C 113.813 125.464,113.705 124.083,114.756 122.747 C 115.171 122.219,115.802 121.160,116.157 120.393 C 116.512 119.627,117.340 118.190,117.997 117.200 C 118.654 116.210,119.539 114.655,119.963 113.744 C 120.387 112.833,120.931 111.966,121.173 111.817 C 121.414 111.667,121.880 110.973,122.207 110.273 C 122.535 109.573,123.336 108.190,123.988 107.200 C 125.177 105.394,126.480 103.254,127.601 101.266 C 127.931 100.680,128.570 99.660,129.020 99.000 C 129.471 98.340,130.058 97.350,130.326 96.800 C 130.594 96.250,131.347 94.990,132.000 94.000 C 132.653 93.010,133.409 91.750,133.680 91.200 C 133.951 90.650,134.557 89.660,135.027 89.000 C 135.497 88.340,135.994 87.481,136.132 87.090 C 136.572 85.842,138.741 85.293,140.537 85.976 M254.417 90.216 C 255.137 90.867,254.584 92.579,253.085 94.348 C 252.781 94.706,252.303 95.579,252.023 96.287 C 251.743 96.994,251.253 97.790,250.934 98.055 C 250.615 98.320,250.094 99.091,249.776 99.768 C 249.458 100.446,248.660 101.810,248.003 102.800 C 247.346 103.790,246.471 105.323,246.059 106.206 C 245.647 107.089,245.015 108.056,244.655 108.355 C 244.295 108.653,244.000 109.091,244.000 109.327 C 244.000 109.564,243.519 110.487,242.931 111.378 C 242.343 112.270,241.467 113.630,240.986 114.400 C 240.504 115.170,239.525 116.729,238.810 117.865 C 237.089 120.601,240.229 120.388,201.360 120.395 C 164.375 120.400,164.981 120.435,163.869 118.284 C 163.504 117.578,162.497 115.879,161.632 114.509 C 160.767 113.139,159.951 111.677,159.820 111.261 C 159.688 110.846,159.224 110.184,158.790 109.791 C 158.355 109.398,158.000 108.896,158.000 108.676 C 158.000 108.456,157.589 107.719,157.086 107.038 C 156.584 106.357,155.951 105.350,155.680 104.800 C 155.409 104.250,154.653 102.990,154.000 102.000 C 153.347 101.010,152.594 99.750,152.326 99.200 C 152.058 98.650,151.471 97.660,151.020 97.000 C 150.215 95.820,149.533 94.655,148.162 92.119 C 146.699 89.412,142.750 89.600,201.117 89.600 C 247.926 89.600,253.812 89.668,254.417 90.216 M149.660 107.200 C 149.890 107.860,150.311 108.400,150.595 108.400 C 150.879 108.400,151.497 109.165,151.967 110.100 C 152.438 111.035,153.346 112.610,153.984 113.600 C 155.777 116.379,157.734 119.695,158.233 120.800 C 159.038 122.581,162.449 126.002,164.226 126.812 C 165.906 127.577,166.983 127.600,201.438 127.600 L 236.920 127.600 239.012 126.577 C 241.078 125.566,242.755 123.863,244.238 121.267 C 246.505 117.302,248.602 113.792,250.014 111.600 C 250.651 110.610,251.549 109.112,252.010 108.270 C 253.931 104.759,254.599 109.312,252.998 115.000 C 252.688 116.100,252.239 118.530,252.000 120.400 C 251.760 122.270,251.309 124.610,250.996 125.600 C 250.683 126.590,250.251 128.840,250.036 130.600 C 249.821 132.360,249.365 134.870,249.024 136.178 C 248.682 137.486,248.217 140.096,247.989 141.978 C 247.761 143.860,247.314 146.210,246.996 147.200 C 246.678 148.190,246.242 150.571,246.028 152.491 C 245.359 158.482,245.504 158.400,235.515 158.400 C 226.812 158.400,226.000 158.188,226.000 155.916 C 226.000 154.207,224.287 150.413,221.937 146.915 C 220.759 145.163,215.256 140.011,214.554 140.004 C 214.309 140.002,213.679 139.670,213.154 139.267 C 210.179 136.981,198.725 135.342,195.983 136.809 C 195.518 137.058,194.219 137.534,193.098 137.867 C 189.164 139.036,180.400 145.662,180.400 147.468 C 180.400 147.699,179.989 148.498,179.487 149.244 C 178.985 149.990,178.051 152.181,177.412 154.113 C 175.887 158.722,176.606 158.434,166.964 158.308 L 158.630 158.200 158.155 157.200 C 157.405 155.623,156.776 152.920,156.169 148.672 C 155.861 146.512,155.261 143.272,154.837 141.472 C 154.412 139.672,153.938 137.034,153.783 135.609 C 153.627 134.184,153.242 132.294,152.926 131.409 C 152.611 130.524,152.179 128.270,151.968 126.400 C 151.756 124.530,151.312 122.055,150.980 120.900 C 150.649 119.745,150.195 117.315,149.973 115.500 C 149.750 113.685,149.289 111.068,148.947 109.685 C 148.146 106.444,148.711 104.477,149.660 107.200 M209.828 143.030 C 213.389 145.085,215.124 146.347,215.872 147.423 C 216.272 148.001,217.005 148.849,217.500 149.308 C 217.995 149.768,218.400 150.375,218.400 150.657 C 218.400 150.938,218.758 151.502,219.195 151.909 C 219.671 152.353,220.221 153.760,220.568 155.425 C 220.886 156.951,221.376 158.965,221.656 159.900 C 222.066 161.270,222.068 161.930,221.662 163.300 C 221.384 164.235,220.904 166.108,220.593 167.461 C 219.752 171.126,214.438 178.377,212.578 178.396 C 212.345 178.398,211.570 178.832,210.854 179.360 C 210.139 179.888,208.898 180.443,208.097 180.593 C 207.296 180.743,206.277 181.121,205.831 181.433 C 204.708 182.220,198.203 182.205,196.683 181.412 C 196.069 181.092,194.899 180.711,194.083 180.566 C 193.267 180.420,192.240 179.984,191.800 179.597 C 191.360 179.209,190.640 178.781,190.200 178.646 C 188.686 178.182,183.600 172.747,183.600 171.594 C 183.600 171.331,183.179 170.615,182.665 170.004 C 181.395 168.495,180.421 161.198,181.133 158.533 C 181.390 157.574,181.600 156.366,181.600 155.851 C 181.600 154.648,183.832 150.368,184.834 149.651 C 185.255 149.349,185.602 148.899,185.604 148.651 C 185.610 148.084,187.963 145.819,188.900 145.479 C 189.285 145.339,189.600 145.044,189.600 144.824 C 189.600 141.670,205.092 140.296,209.828 143.030 M175.531 164.516 C 175.766 164.800,176.152 165.892,176.387 166.942 C 176.622 167.992,177.067 169.244,177.375 169.725 C 177.683 170.206,178.136 171.365,178.383 172.300 C 178.629 173.235,178.999 174.000,179.205 174.000 C 179.411 174.000,179.877 174.585,180.242 175.300 C 181.342 177.460,184.239 180.422,186.500 181.700 C 187.325 182.166,188.000 182.687,188.000 182.858 C 188.000 183.029,188.765 183.373,189.700 183.622 C 190.635 183.871,191.696 184.339,192.059 184.662 C 193.856 186.265,209.200 186.379,209.200 184.790 C 209.200 184.610,209.875 184.246,210.700 183.983 C 215.636 182.406,222.530 175.140,223.832 170.142 C 224.127 169.010,224.783 167.210,225.290 166.142 L 226.211 164.200 233.916 164.091 C 241.123 163.990,243.572 164.265,243.052 165.120 C 242.959 165.274,242.669 167.470,242.408 170.000 C 242.147 172.530,241.692 175.097,241.395 175.705 C 241.099 176.313,240.746 177.843,240.612 179.105 C 240.246 182.536,239.537 186.516,239.162 187.246 C 238.979 187.602,238.634 189.582,238.394 191.646 C 238.155 193.711,237.596 196.606,237.153 198.079 C 236.709 199.553,236.403 201.353,236.473 202.079 L 236.600 203.400 250.536 203.600 L 264.472 203.800 265.236 204.744 C 266.325 206.091,266.188 207.473,264.831 208.831 L 263.662 210.000 190.666 210.000 L 117.671 210.000 116.600 208.727 C 115.758 207.726,115.581 207.194,115.773 206.233 C 116.285 203.677,114.914 203.820,141.114 203.589 C 154.251 203.473,165.066 203.338,165.147 203.289 C 165.296 203.198,165.180 202.629,164.434 199.800 C 164.202 198.920,163.825 196.580,163.597 194.600 C 163.368 192.620,162.927 190.457,162.616 189.792 C 162.305 189.128,161.925 187.148,161.773 185.392 C 161.621 183.637,161.247 181.449,160.942 180.531 C 160.638 179.612,160.122 176.912,159.796 174.531 C 159.470 172.149,158.907 169.079,158.545 167.709 C 157.541 163.914,157.345 164.000,167.000 164.000 C 173.131 164.000,175.206 164.126,175.531 164.516 M282.769 204.636 C 284.347 205.963,284.363 207.299,282.819 208.842 L 281.639 210.023 276.141 209.911 L 270.644 209.800 269.889 208.506 C 269.057 207.081,269.216 205.241,270.261 204.196 C 271.441 203.016,281.255 203.361,282.769 204.636 M317.200 229.683 C 317.970 229.901,318.905 230.351,319.278 230.682 C 319.963 231.290,324.875 232.399,326.891 232.400 C 328.829 232.400,329.289 233.709,328.806 237.846 C 328.578 239.801,328.283 246.620,328.150 253.000 C 327.881 265.857,328.032 267.080,329.824 266.630 C 331.248 266.272,331.696 266.676,331.035 267.721 C 330.729 268.204,330.361 269.166,330.217 269.859 C 330.073 270.551,329.605 271.434,329.177 271.821 C 328.750 272.207,328.400 272.730,328.400 272.982 C 328.400 274.508,319.189 284.400,317.768 284.400 C 317.451 284.400,316.884 284.760,316.507 285.200 C 316.130 285.640,315.637 286.001,315.411 286.002 C 315.185 286.002,313.920 286.542,312.600 287.200 C 311.280 287.858,309.892 288.398,309.515 288.398 C 309.138 288.399,307.896 288.768,306.754 289.218 C 305.323 289.782,303.983 290.000,302.439 289.918 L 300.200 289.800 299.904 285.000 C 299.553 279.315,299.025 275.245,298.330 272.883 C 297.422 269.791,299.236 268.989,302.862 270.879 C 304.664 271.818,313.511 272.382,316.000 271.717 L 317.400 271.343 317.267 267.171 C 317.194 264.877,316.972 262.460,316.773 261.800 C 316.574 261.140,316.136 256.598,315.799 251.706 C 315.463 246.814,315.022 242.404,314.820 241.906 C 313.053 237.559,313.319 228.264,315.189 229.035 C 315.525 229.173,316.430 229.465,317.200 229.683 M110.600 229.617 C 116.443 230.169,117.021 231.154,115.520 238.000 C 115.255 239.210,115.041 242.708,115.043 245.773 C 115.046 248.838,114.978 251.133,114.891 250.873 C 114.804 250.613,114.305 250.400,113.782 250.400 C 113.259 250.400,112.509 250.054,112.114 249.631 C 106.887 244.019,96.615 246.197,91.689 253.962 C 89.959 256.687,89.903 257.054,91.024 258.264 C 92.098 259.423,92.233 259.853,92.572 263.200 C 93.713 274.470,103.132 279.257,110.556 272.341 C 110.988 271.938,111.649 271.511,112.026 271.392 C 112.402 271.272,113.206 270.426,113.811 269.512 L 114.911 267.850 115.701 268.825 C 116.679 270.031,116.437 273.777,115.253 275.752 C 114.842 276.438,114.401 277.557,114.275 278.239 C 113.483 282.497,107.787 287.678,103.019 288.475 C 100.063 288.969,93.121 288.622,91.840 287.916 C 91.326 287.632,90.197 287.010,89.332 286.532 C 86.532 284.988,81.600 279.240,81.600 277.521 C 81.600 277.192,81.244 276.601,80.808 276.207 C 80.372 275.813,79.898 274.840,79.754 274.045 C 79.610 273.250,79.175 271.970,78.788 271.199 C 78.402 270.429,77.893 268.224,77.657 266.300 C 77.422 264.376,77.043 262.453,76.815 262.027 C 76.184 260.849,76.284 260.530,77.822 258.829 C 79.120 257.392,79.274 256.959,79.594 253.862 C 79.786 251.996,80.207 249.959,80.530 249.335 C 80.852 248.711,81.332 247.396,81.597 246.414 C 81.861 245.432,82.420 244.193,82.839 243.660 C 83.257 243.128,83.600 242.366,83.600 241.967 C 83.600 241.568,84.050 240.756,84.600 240.162 C 85.150 239.569,85.600 238.965,85.600 238.821 C 85.600 237.758,93.100 231.600,94.394 231.600 C 94.675 231.600,95.519 231.221,96.268 230.758 C 97.114 230.235,98.727 229.800,100.516 229.612 C 104.802 229.161,105.787 229.162,110.600 229.617 M44.240 232.136 C 44.389 232.611,44.891 233.375,45.356 233.833 C 45.820 234.291,46.660 235.214,47.222 235.885 C 47.785 236.556,49.520 238.206,51.079 239.551 C 54.516 242.516,54.680 242.874,53.287 244.352 C 52.689 244.987,51.390 246.462,50.400 247.630 C 47.893 250.589,42.586 255.593,40.988 256.505 C 40.164 256.975,39.303 258.974,39.647 259.621 C 39.815 259.940,40.729 261.800,41.677 263.756 C 44.154 268.866,44.851 270.172,45.232 270.414 C 45.417 270.532,45.853 271.252,46.200 272.014 C 46.547 272.776,47.371 274.120,48.029 275.000 C 48.688 275.880,49.669 277.230,50.209 278.000 C 50.750 278.770,51.486 279.805,51.845 280.301 C 52.652 281.412,50.398 283.814,48.153 284.235 C 47.437 284.369,46.543 284.821,46.164 285.240 C 45.786 285.658,45.258 286.000,44.991 286.000 C 44.724 286.000,43.298 286.810,41.822 287.800 C 38.618 289.949,38.625 289.948,38.017 288.300 C 37.754 287.585,37.204 286.255,36.795 285.343 C 36.387 284.432,35.931 282.992,35.782 282.143 C 35.633 281.295,35.181 280.020,34.776 279.312 C 34.372 278.603,33.919 277.343,33.771 276.512 C 33.623 275.680,33.177 274.640,32.780 274.200 C 32.384 273.760,31.929 272.860,31.769 272.200 C 31.609 271.540,31.068 270.506,30.567 269.902 C 30.065 269.298,29.541 268.443,29.401 268.002 C 29.054 266.909,28.622 266.995,28.038 268.276 C 27.675 269.072,27.621 271.134,27.829 276.229 C 28.221 285.822,28.287 285.679,23.145 286.408 C 21.540 286.635,19.835 287.078,19.356 287.392 C 18.299 288.085,13.276 289.294,12.765 288.979 C 12.284 288.681,12.294 286.266,12.778 285.780 C 12.987 285.571,13.455 282.520,13.819 279.000 C 14.183 275.480,14.641 272.300,14.837 271.933 C 15.561 270.577,16.099 255.420,15.838 243.759 C 15.540 230.465,15.443 230.893,18.573 231.594 C 19.597 231.823,22.055 232.126,24.036 232.267 C 28.721 232.599,28.510 232.079,28.118 242.307 C 27.616 255.396,28.266 256.800,31.561 249.744 C 31.986 248.833,32.524 247.971,32.756 247.827 C 32.987 247.684,33.538 246.809,33.979 245.883 C 34.419 244.958,34.943 243.930,35.142 243.600 C 35.340 243.270,35.794 242.370,36.149 241.600 C 36.504 240.830,36.947 239.930,37.132 239.600 C 37.966 238.116,39.590 234.491,39.910 233.400 C 40.680 230.772,43.549 229.935,44.240 232.136 M184.200 240.610 C 184.860 240.906,186.099 241.332,186.953 241.557 C 188.436 241.947,191.647 243.851,191.938 244.515 C 192.014 244.688,192.483 245.318,192.980 245.915 C 193.477 246.512,194.091 247.636,194.344 248.413 C 194.671 249.417,195.162 249.961,196.039 250.292 C 196.718 250.548,197.172 250.921,197.049 251.120 C 196.926 251.319,196.622 252.814,196.374 254.441 C 196.125 256.069,195.603 257.940,195.212 258.600 C 194.822 259.260,194.387 260.290,194.246 260.890 C 193.987 261.991,192.770 264.062,191.169 266.126 C 189.370 268.446,190.970 273.355,195.727 280.110 C 197.019 281.944,196.517 283.734,194.600 284.131 C 193.720 284.313,192.280 284.793,191.400 285.198 C 190.520 285.603,189.147 286.135,188.348 286.382 C 187.550 286.628,186.577 287.183,186.186 287.615 C 183.871 290.174,182.208 288.278,181.786 282.600 C 181.395 277.340,180.444 275.600,177.958 275.600 C 176.002 275.600,175.600 276.564,175.600 281.248 C 175.600 286.282,175.678 286.182,171.496 286.502 C 170.009 286.615,168.569 286.893,168.296 287.118 C 165.909 289.091,160.490 288.921,160.966 286.888 C 161.106 286.290,161.384 284.524,161.583 282.965 C 161.783 281.406,162.319 278.592,162.773 276.711 C 163.863 272.204,163.866 269.359,162.784 268.242 C 159.753 265.113,159.493 264.000,161.794 264.000 C 163.689 264.000,164.200 263.134,164.200 259.924 C 164.200 256.733,163.580 255.903,162.180 257.218 C 160.202 259.077,159.880 258.270,159.786 251.214 C 159.726 246.664,159.562 245.087,159.044 244.086 L 158.380 242.801 159.690 242.002 C 160.410 241.562,161.417 241.202,161.926 241.201 C 162.436 241.201,163.246 240.978,163.726 240.707 C 165.705 239.591,181.762 239.515,184.200 240.610 M225.078 240.841 C 226.001 241.259,227.005 241.600,227.309 241.600 C 227.889 241.600,231.708 243.973,231.926 244.468 C 231.995 244.626,232.580 245.420,233.226 246.233 C 233.872 247.045,234.400 248.048,234.400 248.461 C 234.400 248.926,234.934 249.467,235.800 249.881 C 236.570 250.248,237.193 250.650,237.184 250.774 C 236.971 253.845,234.593 261.070,233.098 263.189 C 232.714 263.733,232.400 264.394,232.400 264.658 C 232.400 264.922,231.929 265.699,231.353 266.383 C 230.043 267.940,229.945 270.461,231.146 271.748 C 231.583 272.217,232.065 273.140,232.216 273.800 C 232.368 274.460,232.953 275.720,233.515 276.600 C 236.017 280.511,236.321 281.059,236.550 282.054 C 236.856 283.387,236.255 283.902,233.869 284.347 C 232.854 284.537,231.575 284.986,231.026 285.346 C 230.477 285.706,229.779 286.000,229.474 286.000 C 229.170 286.000,228.128 286.537,227.160 287.193 C 223.434 289.718,222.463 288.849,221.799 282.390 C 221.236 276.916,220.507 275.600,218.040 275.600 C 215.891 275.600,215.484 276.634,215.802 281.292 C 216.139 286.240,216.171 286.196,211.986 286.533 C 210.329 286.666,208.439 287.034,207.786 287.350 C 205.890 288.270,202.038 288.998,201.566 288.526 C 200.892 287.852,201.751 280.001,202.784 277.400 C 203.773 274.910,203.826 269.249,202.869 268.271 C 199.799 265.136,199.480 264.000,201.669 264.000 C 203.734 264.000,204.400 263.374,204.400 261.436 C 204.400 257.815,203.292 255.621,202.331 257.338 C 201.918 258.076,200.588 258.228,200.189 257.582 C 200.047 257.352,199.879 254.412,199.815 251.049 C 199.749 247.530,199.509 244.578,199.251 244.096 C 198.471 242.639,199.859 241.200,202.045 241.200 C 202.489 241.200,203.246 240.978,203.726 240.707 C 205.985 239.434,222.190 239.536,225.078 240.841 M375.551 240.775 C 376.440 241.229,377.511 241.600,377.929 241.600 C 378.348 241.600,379.355 242.128,380.167 242.774 C 380.980 243.420,381.772 244.005,381.927 244.074 C 382.082 244.143,382.795 244.920,383.512 245.800 C 384.228 246.680,385.396 247.597,386.107 247.839 C 387.316 248.249,387.396 248.391,387.343 250.039 C 387.232 253.461,386.024 259.322,385.253 260.174 C 384.842 260.628,384.396 261.462,384.263 262.026 C 384.131 262.591,383.657 263.473,383.211 263.987 C 382.261 265.083,382.134 267.123,382.995 267.453 C 386.080 268.637,387.446 280.030,384.932 283.600 C 381.042 289.123,377.082 290.808,368.027 290.792 C 362.026 290.782,358.519 290.253,356.173 289.006 C 355.133 288.453,353.942 288.000,353.528 288.000 C 352.547 288.000,352.143 286.903,352.761 285.915 C 353.028 285.486,353.491 283.162,353.789 280.750 C 354.087 278.339,354.529 276.127,354.772 275.834 C 355.014 275.542,355.314 273.344,355.437 270.951 L 355.662 266.600 354.009 264.859 C 352.201 262.954,352.061 261.861,353.604 261.688 C 356.496 261.363,356.527 261.333,356.264 259.109 C 355.974 256.661,355.348 256.122,354.127 257.269 C 353.138 258.197,352.021 258.013,351.962 256.913 C 351.941 256.521,351.876 253.765,351.819 250.790 C 351.741 246.770,351.549 245.061,351.072 244.139 C 350.309 242.665,350.701 242.139,353.400 241.011 C 357.257 239.400,372.537 239.237,375.551 240.775 M150.000 242.198 C 150.990 242.199,152.552 242.065,153.471 241.900 C 156.462 241.363,156.563 241.682,156.243 250.682 C 156.056 255.916,155.774 258.936,155.363 260.095 C 155.031 261.033,154.579 263.219,154.360 264.954 C 154.141 266.688,153.610 268.796,153.181 269.638 C 152.751 270.479,152.400 271.477,152.400 271.854 C 152.400 272.732,149.611 278.400,149.179 278.400 C 149.000 278.400,148.739 278.761,148.600 279.202 C 147.874 281.488,142.729 285.577,139.116 286.738 C 133.193 288.641,128.000 287.589,128.000 284.485 C 128.000 283.753,127.599 282.942,126.900 282.264 C 126.295 281.677,125.496 280.848,125.125 280.423 C 124.044 279.184,121.601 274.357,121.591 273.440 C 121.586 272.978,121.237 271.839,120.815 270.909 C 119.284 267.537,118.509 248.428,119.780 245.387 L 120.359 244.000 123.280 243.992 C 127.440 243.980,131.152 243.368,132.065 242.541 C 134.179 240.628,134.905 243.547,133.465 248.176 C 131.014 256.058,131.084 270.843,133.581 272.865 C 136.111 274.914,140.601 272.357,141.574 268.313 C 141.801 267.371,142.287 265.700,142.655 264.600 C 143.620 261.711,143.815 255.164,143.019 252.400 C 142.670 251.190,142.126 248.711,141.810 246.890 C 141.494 245.070,141.136 243.420,141.014 243.223 C 140.334 242.123,142.112 241.542,145.157 241.869 C 146.831 242.048,149.010 242.196,150.000 242.198 M347.524 243.930 C 347.597 244.944,347.432 245.920,347.124 246.291 C 346.711 246.789,346.584 250.928,346.522 265.919 C 346.434 287.260,346.689 285.787,343.080 285.829 C 341.716 285.845,339.225 286.005,337.544 286.184 C 334.732 286.484,334.453 286.447,334.066 285.724 C 333.587 284.828,334.223 275.083,334.837 273.905 C 335.305 273.009,335.313 256.961,334.846 256.074 C 334.651 255.703,334.361 253.374,334.202 250.898 L 333.912 246.396 335.456 245.785 C 336.305 245.450,337.450 244.936,338.000 244.644 C 338.550 244.352,339.876 243.900,340.946 243.639 C 342.016 243.379,343.163 242.894,343.495 242.562 C 344.908 241.149,347.385 241.990,347.524 243.930 M267.800 243.233 C 270.280 243.748,275.631 243.625,277.348 243.013 C 280.024 242.059,281.055 243.881,279.100 246.109 C 276.868 248.654,273.838 252.715,271.564 256.208 C 270.994 257.084,270.184 258.323,269.764 258.961 C 268.286 261.207,267.222 263.013,266.586 264.354 C 266.233 265.099,265.552 266.239,265.072 266.889 C 263.849 268.544,263.899 277.752,265.146 280.571 C 267.436 285.747,266.089 287.075,260.654 285.000 C 259.120 284.413,257.983 284.324,254.173 284.493 C 248.565 284.740,247.773 284.374,248.958 282.080 C 249.265 281.486,249.643 279.740,249.799 278.200 C 249.954 276.660,250.335 274.874,250.644 274.231 C 251.809 271.812,251.837 267.739,250.704 265.455 C 246.925 257.832,245.839 255.804,244.236 253.363 C 243.816 252.723,243.015 251.480,242.457 250.600 C 241.898 249.720,241.121 248.640,240.729 248.200 C 236.753 243.739,235.917 244.102,251.598 243.472 L 253.397 243.400 253.935 245.200 C 255.585 250.714,256.666 253.250,257.884 254.468 L 259.058 255.643 260.291 253.122 C 260.969 251.735,261.793 249.790,262.124 248.800 C 263.980 243.234,264.554 242.206,265.564 242.632 C 265.914 242.779,266.920 243.050,267.800 243.233 M176.900 252.423 L 175.600 252.823 175.600 257.922 C 175.600 261.883,175.739 263.220,176.220 263.908 L 176.841 264.794 178.044 263.904 C 179.710 262.673,181.600 259.696,181.600 258.305 C 181.600 256.684,182.203 255.736,183.428 255.429 C 184.468 255.168,184.586 253.660,183.643 252.692 C 183.150 252.185,178.300 251.992,176.900 252.423 M217.215 252.330 C 215.486 252.855,214.782 262.102,216.326 264.008 L 217.052 264.905 219.116 262.808 C 220.586 261.315,221.248 260.292,221.416 259.256 C 221.779 257.007,222.298 256.029,223.394 255.530 C 224.607 254.977,224.813 253.044,223.705 252.619 C 222.597 252.194,218.294 252.002,217.215 252.330 M368.300 252.533 C 367.115 253.473,367.270 261.041,368.482 261.426 C 369.061 261.610,369.425 261.525,369.540 261.181 C 369.636 260.892,370.116 260.283,370.606 259.828 C 371.126 259.345,371.622 258.250,371.796 257.200 C 371.960 256.210,372.359 254.884,372.681 254.254 C 373.580 252.499,370.077 251.122,368.300 252.533 M74.209 259.390 C 74.319 266.107,74.117 266.645,71.631 266.257 C 67.626 265.631,62.620 265.518,59.863 265.989 C 55.208 266.785,55.200 266.775,55.200 260.035 C 55.200 253.184,56.271 252.292,61.777 254.556 C 63.069 255.088,71.652 253.708,72.532 252.828 C 73.668 251.692,74.111 253.426,74.209 259.390 M374.200 271.990 C 373.760 272.155,372.378 272.417,371.128 272.571 C 368.570 272.886,368.063 273.305,367.726 275.380 C 367.349 277.701,369.924 278.769,373.040 277.585 C 373.861 277.273,375.600 275.813,375.600 275.436 C 375.600 275.413,375.764 274.824,375.964 274.127 C 376.406 272.585,375.508 271.497,374.200 271.990 "
              stroke="none" fill="#d35c5c" fill-rule="evenodd"></path>
        <path id="path1"
              d="M135.870 48.024 L 134.740 49.210 135.943 50.705 C 136.605 51.527,141.099 56.139,145.931 60.954 C 155.555 70.546,155.624 70.588,157.510 68.036 L 158.391 66.844 148.374 56.822 C 137.826 46.269,137.657 46.149,135.870 48.024 M160.206 165.300 C 159.865 166.313,159.860 167.072,160.172 170.400 C 160.347 172.270,160.723 174.520,161.008 175.400 C 161.705 177.548,161.923 178.751,162.395 183.046 C 162.615 185.051,163.057 187.318,163.377 188.083 C 163.697 188.848,164.138 191.227,164.357 193.369 C 164.576 195.511,164.965 197.516,165.220 197.825 C 166.071 198.850,166.347 203.124,165.606 203.795 C 165.055 204.293,161.419 204.398,141.299 204.491 C 126.201 204.560,117.498 204.745,117.248 205.000 C 116.105 206.168,116.318 207.473,117.794 208.343 L 119.246 209.200 191.054 209.200 L 262.862 209.200 264.059 208.002 L 265.257 206.804 264.401 205.602 L 263.546 204.400 250.022 204.400 C 238.396 204.400,236.427 204.314,235.992 203.791 C 235.347 203.013,235.765 197.338,236.617 195.297 C 236.942 194.519,237.456 191.747,237.760 189.136 C 238.063 186.525,238.520 184.137,238.776 183.829 C 239.032 183.520,239.410 181.588,239.617 179.534 C 239.823 177.480,240.274 175.049,240.617 174.132 C 241.354 172.166,241.928 167.389,241.597 165.985 L 241.365 165.000 234.100 164.891 L 226.836 164.782 226.224 166.842 C 225.888 167.976,225.447 169.105,225.245 169.351 C 225.043 169.598,224.676 170.557,224.429 171.482 C 224.181 172.407,223.737 173.406,223.441 173.702 C 223.146 173.997,222.606 174.814,222.243 175.516 C 221.456 177.039,216.981 181.665,215.585 182.399 C 215.043 182.684,214.456 183.161,214.280 183.458 C 214.104 183.756,213.758 184.000,213.512 184.000 C 213.265 184.000,211.969 184.528,210.632 185.173 C 208.517 186.194,204.131 187.148,201.000 187.269 C 196.584 187.439,190.331 185.507,186.000 182.634 C 182.747 180.477,177.600 174.397,177.600 172.713 C 177.600 172.380,177.255 171.669,176.833 171.133 C 176.411 170.596,175.945 169.447,175.798 168.579 C 175.362 166.008,175.232 165.743,174.173 165.261 C 172.710 164.594,160.433 164.628,160.206 165.300 M270.664 204.700 C 270.467 205.022,270.283 206.687,270.356 207.490 C 270.539 209.512,280.021 210.018,281.958 208.109 L 283.065 207.018 282.293 205.709 L 281.521 204.400 276.184 204.400 C 273.249 204.400,270.765 204.535,270.664 204.700 M102.000 230.372 C 99.308 230.626,94.512 232.344,92.846 233.651 C 92.321 234.063,91.703 234.400,91.473 234.400 C 90.966 234.400,86.400 239.005,86.400 239.516 C 86.400 239.714,86.047 240.196,85.615 240.586 C 85.183 240.977,84.617 241.950,84.357 242.748 C 84.097 243.547,83.565 244.610,83.175 245.112 C 82.785 245.613,82.344 246.783,82.195 247.712 C 82.045 248.640,81.658 249.818,81.333 250.330 C 81.008 250.841,80.570 253.001,80.360 255.130 C 80.023 258.540,79.857 259.099,78.966 259.833 C 77.758 260.828,77.892 265.601,79.213 268.675 C 79.609 269.596,80.140 271.348,80.393 272.568 C 80.647 273.788,81.017 274.887,81.216 275.010 C 81.414 275.133,81.951 275.991,82.409 276.917 C 82.866 277.842,83.584 279.216,84.004 279.970 C 84.851 281.489,89.021 285.600,89.715 285.600 C 89.958 285.600,90.853 286.082,91.703 286.671 C 93.666 288.032,102.398 288.334,104.600 287.118 C 105.260 286.753,106.340 286.199,107.000 285.885 C 108.351 285.243,112.000 281.494,112.000 280.749 C 112.000 280.482,112.273 279.962,112.606 279.594 C 112.939 279.226,113.486 277.872,113.821 276.585 C 114.156 275.299,114.582 274.056,114.769 273.823 C 115.364 273.080,115.670 270.854,115.274 270.147 C 114.940 269.549,114.812 269.616,114.265 270.675 C 113.920 271.342,113.102 272.109,112.448 272.380 C 111.793 272.651,110.947 273.217,110.567 273.637 C 110.187 274.056,109.647 274.400,109.367 274.400 C 109.086 274.400,108.566 274.691,108.211 275.046 C 106.504 276.753,99.971 276.867,97.889 275.226 C 95.301 273.185,93.972 271.726,93.562 270.474 C 93.296 269.663,92.849 268.640,92.567 268.200 C 92.286 267.760,91.943 266.050,91.805 264.400 C 91.408 259.650,91.388 259.600,89.792 259.600 C 88.384 259.600,87.881 258.720,88.752 257.780 C 88.945 257.571,89.329 256.680,89.605 255.800 C 89.881 254.920,90.397 253.899,90.753 253.532 C 91.109 253.165,91.928 252.131,92.574 251.235 C 93.220 250.340,94.075 249.503,94.474 249.376 C 94.873 249.250,95.200 248.969,95.200 248.753 C 95.200 248.536,95.785 248.083,96.500 247.745 C 97.215 247.407,98.430 246.786,99.200 246.366 C 100.999 245.383,106.573 245.290,108.513 246.211 C 110.394 247.103,111.491 247.778,112.400 248.600 C 113.609 249.694,113.697 249.349,114.008 242.277 C 114.166 238.683,114.499 235.362,114.748 234.897 C 116.373 231.860,111.717 229.508,105.200 230.074 C 104.870 230.102,103.430 230.236,102.000 230.372 M314.592 230.412 C 314.209 231.033,314.765 237.272,315.256 237.866 C 315.690 238.390,316.205 243.060,316.618 250.200 C 316.771 252.840,317.051 255.297,317.241 255.661 C 317.955 257.028,318.496 271.275,317.858 271.913 C 316.010 273.762,304.831 273.444,301.000 271.434 C 300.340 271.088,299.575 270.804,299.300 270.802 C 298.708 270.800,298.626 271.475,299.196 271.667 C 299.714 271.841,300.309 276.843,300.627 283.700 L 300.882 289.200 302.067 289.200 C 302.719 289.200,303.608 289.010,304.041 288.778 C 304.475 288.546,306.210 288.092,307.897 287.769 C 309.584 287.446,311.069 287.011,311.198 286.803 C 311.327 286.594,312.149 286.171,313.025 285.862 C 317.584 284.253,323.955 278.478,327.390 272.840 C 327.605 272.488,328.190 271.560,328.690 270.778 C 329.877 268.925,329.840 268.544,328.400 267.800 L 327.200 267.179 327.201 258.690 C 327.201 254.020,327.392 246.833,327.624 242.717 C 328.114 234.035,328.018 233.600,325.610 233.600 C 324.750 233.600,323.951 233.444,323.833 233.254 C 323.716 233.064,322.557 232.699,321.259 232.443 C 319.961 232.188,318.489 231.624,317.988 231.190 C 317.487 230.755,316.850 230.400,316.572 230.400 C 316.293 230.400,315.799 230.298,315.473 230.173 C 315.147 230.048,314.751 230.156,314.592 230.412 M16.627 232.306 C 16.510 232.423,16.528 237.757,16.668 244.159 C 16.944 256.889,16.289 273.052,15.384 275.800 C 15.095 276.680,14.657 279.455,14.411 281.967 C 14.165 284.479,13.879 286.673,13.774 286.842 C 13.046 288.020,16.993 287.869,18.329 286.668 C 18.698 286.337,20.383 285.874,22.074 285.640 C 26.531 285.024,27.349 284.133,27.022 280.251 C 26.632 275.626,26.324 265.576,26.553 264.977 C 26.879 264.128,29.835 266.232,30.455 267.754 C 30.734 268.439,31.176 269.180,31.437 269.400 C 31.698 269.620,32.121 270.461,32.376 271.268 C 32.632 272.075,33.090 272.943,33.395 273.196 C 33.699 273.448,34.071 274.212,34.221 274.893 C 34.370 275.574,34.922 276.939,35.446 277.925 C 35.971 278.912,36.400 280.100,36.400 280.565 C 36.400 281.031,36.760 282.084,37.200 282.904 C 37.640 283.725,38.001 284.623,38.002 284.899 C 38.003 285.174,38.188 286.059,38.411 286.865 L 38.818 288.330 40.109 287.697 C 40.819 287.349,41.544 286.825,41.720 286.532 C 41.896 286.240,42.276 286.000,42.564 286.000 C 42.852 286.000,43.707 285.580,44.462 285.068 C 45.218 284.555,46.409 283.936,47.110 283.691 C 47.810 283.447,48.994 282.760,49.741 282.164 L 51.099 281.080 49.936 279.440 C 49.297 278.538,48.510 277.395,48.187 276.900 C 47.272 275.496,46.265 273.977,45.497 272.840 C 45.111 272.268,44.431 271.042,43.986 270.117 C 43.541 269.191,43.020 268.336,42.827 268.217 C 42.302 267.892,39.600 262.432,39.600 261.694 C 39.600 261.341,39.223 260.650,38.762 260.160 C 37.427 258.739,37.807 258.108,42.400 254.119 C 44.507 252.289,48.690 248.111,50.529 246.000 C 51.008 245.450,51.829 244.513,52.352 243.918 L 53.305 242.837 51.952 241.720 C 49.357 239.578,43.943 233.903,43.578 232.943 C 43.083 231.639,40.950 232.605,40.563 234.307 C 40.340 235.292,35.885 244.633,34.701 246.600 C 33.002 249.424,32.444 250.327,31.764 251.360 C 31.344 251.997,30.717 252.985,30.370 253.555 C 29.548 254.907,27.286 256.246,26.743 255.703 C 26.332 255.292,26.378 253.843,27.189 241.800 C 27.762 233.288,27.869 233.600,24.366 233.600 C 22.816 233.600,21.223 233.426,20.826 233.214 C 19.833 232.683,16.887 232.046,16.627 232.306 M171.200 240.802 C 168.055 241.058,164.317 241.649,161.400 242.352 C 160.375 242.599,160.212 242.813,160.283 243.821 C 160.415 245.713,160.803 254.896,160.802 256.100 L 160.800 257.200 161.600 256.400 C 162.497 255.503,163.082 255.423,164.574 255.990 C 166.534 256.735,166.043 263.543,163.952 264.625 C 162.565 265.342,162.474 266.392,163.660 267.996 C 164.690 269.389,164.481 277.551,163.357 279.800 C 162.712 281.093,161.867 286.661,162.228 287.245 C 162.607 287.859,164.551 287.632,166.118 286.793 C 166.947 286.348,168.744 285.887,170.112 285.767 C 174.790 285.357,174.400 285.820,174.400 280.662 C 174.400 275.232,174.951 274.307,178.226 274.239 C 180.931 274.182,181.772 275.321,182.384 279.869 C 183.193 285.881,184.371 288.481,185.610 286.988 C 186.390 286.048,190.685 284.081,193.012 283.597 C 195.493 283.082,195.876 282.153,194.457 280.084 C 189.183 272.386,188.165 268.469,190.660 265.469 C 191.177 264.847,191.600 264.096,191.600 263.800 C 191.600 263.504,192.024 262.753,192.542 262.131 C 193.061 261.509,193.602 260.360,193.746 259.578 C 193.890 258.795,194.366 257.452,194.804 256.593 C 195.852 254.536,195.855 251.955,194.810 251.009 C 194.376 250.616,193.905 249.913,193.765 249.447 C 193.395 248.220,190.826 244.400,190.370 244.400 C 190.157 244.400,189.312 243.967,188.491 243.437 C 187.671 242.907,186.041 242.276,184.869 242.035 C 183.697 241.793,182.437 241.440,182.069 241.250 C 181.070 240.736,175.065 240.488,171.200 240.802 M211.200 240.802 C 208.048 241.058,204.290 241.653,201.400 242.354 C 200.431 242.588,200.219 242.832,200.299 243.622 C 200.354 244.160,200.515 247.435,200.656 250.899 C 200.867 256.058,201.003 257.075,201.410 256.518 C 201.907 255.839,204.274 255.628,205.173 256.183 C 205.426 256.340,205.600 257.963,205.600 260.175 C 205.600 264.033,205.394 264.568,203.800 264.861 C 202.641 265.074,202.548 266.680,203.629 267.830 C 204.711 268.982,204.572 276.954,203.420 279.834 C 202.605 281.870,201.984 286.854,202.468 287.463 C 202.894 287.998,205.180 287.493,206.629 286.545 C 207.120 286.223,209.019 285.861,210.924 285.727 C 215.189 285.426,215.447 285.285,214.854 283.583 C 213.053 278.416,214.654 274.400,218.517 274.400 C 221.388 274.400,221.849 275.017,222.428 279.634 C 223.154 285.425,224.324 288.153,225.591 287.010 C 226.829 285.893,230.822 284.052,232.978 283.605 C 235.290 283.125,236.354 280.928,234.600 280.255 C 234.270 280.129,234.000 279.763,234.000 279.443 C 234.000 279.123,233.568 278.348,233.039 277.720 C 232.511 277.092,231.880 275.839,231.637 274.936 C 231.393 274.032,230.948 273.089,230.647 272.839 C 229.042 271.507,229.034 266.345,230.637 265.731 C 230.942 265.613,231.402 264.819,231.658 263.965 C 231.914 263.111,232.455 262.112,232.861 261.744 C 233.268 261.377,233.602 260.699,233.604 260.238 C 233.606 259.777,234.050 258.500,234.591 257.400 C 235.846 254.848,235.938 252.030,234.800 251.000 C 234.360 250.602,234.000 250.070,234.000 249.818 C 234.000 249.131,230.839 244.400,230.380 244.400 C 230.162 244.400,229.312 243.969,228.491 243.442 C 227.671 242.916,226.010 242.262,224.800 241.989 C 223.590 241.717,222.330 241.362,222.000 241.200 C 221.038 240.728,214.895 240.502,211.200 240.802 M360.400 240.810 C 351.679 242.193,351.872 242.062,352.413 246.220 C 352.640 247.969,352.807 250.660,352.784 252.200 C 352.761 253.740,352.755 255.495,352.771 256.100 L 352.800 257.200 353.600 256.400 C 354.497 255.503,355.082 255.423,356.574 255.990 C 358.367 256.672,358.024 262.400,356.190 262.400 C 353.899 262.400,353.810 263.347,355.895 265.529 C 356.499 266.161,356.499 266.156,356.409 270.200 C 356.342 273.207,355.792 276.929,354.873 280.600 C 354.063 283.831,353.870 287.200,354.493 287.200 C 354.807 287.200,355.950 287.664,357.032 288.232 C 360.826 290.221,374.973 290.564,377.097 288.718 C 377.484 288.382,378.280 287.994,378.867 287.854 C 383.923 286.655,387.218 277.152,384.428 271.815 C 383.973 270.944,383.600 270.030,383.600 269.785 C 383.600 269.540,383.150 268.917,382.600 268.400 C 381.332 267.208,381.247 264.957,382.414 263.473 C 382.862 262.903,383.428 261.844,383.671 261.119 C 383.914 260.393,384.374 259.498,384.692 259.130 C 385.682 257.982,386.498 248.800,385.610 248.800 C 385.395 248.800,383.840 247.447,382.154 245.794 C 380.469 244.140,378.619 242.690,378.045 242.570 C 377.470 242.451,375.839 241.993,374.419 241.553 C 371.473 240.639,363.982 240.243,360.400 240.810 M142.265 242.700 C 141.966 243.193,142.713 247.146,143.482 249.140 C 144.620 252.088,144.522 263.892,143.340 266.400 C 142.873 267.390,142.370 268.766,142.223 269.457 C 141.412 273.266,135.020 275.992,132.592 273.564 C 131.234 272.206,129.660 257.184,130.738 255.869 C 130.949 255.611,131.326 253.716,131.574 251.658 C 131.823 249.600,132.349 247.260,132.742 246.458 C 133.779 244.344,133.498 243.564,131.877 244.059 C 131.175 244.274,128.400 244.554,125.712 244.682 L 120.824 244.915 120.354 246.340 C 119.647 248.483,120.143 264.692,121.005 267.600 C 121.364 268.810,121.901 270.851,122.198 272.135 C 122.496 273.419,123.023 274.783,123.370 275.166 C 123.716 275.550,124.001 276.119,124.001 276.431 C 124.004 277.334,125.341 279.290,127.347 281.325 C 128.505 282.500,129.200 283.562,129.200 284.156 C 129.200 285.448,130.773 286.402,132.886 286.392 C 136.093 286.377,140.183 285.599,141.284 284.793 C 141.880 284.357,142.516 284.000,142.696 284.000 C 144.682 284.000,150.645 275.012,151.835 270.226 C 152.160 268.920,152.597 267.645,152.807 267.392 C 153.016 267.139,153.462 264.840,153.797 262.283 C 154.133 259.726,154.581 257.175,154.794 256.615 C 155.260 255.391,155.825 243.964,155.467 243.030 C 155.237 242.431,155.108 242.427,154.027 242.986 C 152.503 243.774,147.557 243.789,145.400 243.012 C 143.598 242.362,142.534 242.257,142.265 242.700 M343.600 243.600 C 342.215 244.306,341.589 244.545,337.100 246.083 C 334.682 246.911,333.915 248.554,335.300 249.940 C 335.987 250.628,336.027 279.199,335.342 280.039 C 335.090 280.347,334.820 281.680,334.742 283.000 L 334.600 285.400 336.992 285.288 C 338.307 285.227,339.558 285.002,339.772 284.788 C 339.985 284.575,341.283 284.400,342.656 284.400 C 345.907 284.400,345.653 285.781,345.646 268.096 C 345.642 259.573,345.767 250.849,345.922 248.709 C 346.184 245.118,345.918 242.737,345.267 242.843 C 345.120 242.867,344.370 243.208,343.600 243.600 M264.626 244.372 C 264.554 244.497,264.365 245.230,264.208 246.000 C 264.050 246.770,263.695 247.760,263.418 248.200 C 263.141 248.640,262.620 250.011,262.261 251.248 C 261.902 252.484,261.336 253.721,261.004 253.997 C 260.672 254.272,260.400 254.718,260.400 254.987 C 260.400 255.256,260.059 255.785,259.642 256.162 C 258.835 256.892,256.000 255.067,256.000 253.818 C 256.000 253.544,255.561 252.494,255.025 251.486 C 254.489 250.478,253.838 248.572,253.578 247.251 C 252.994 244.282,253.313 244.388,245.848 244.680 L 239.661 244.922 240.313 245.961 C 240.994 247.045,242.274 248.741,243.616 250.335 C 244.048 250.850,244.511 251.705,244.645 252.235 C 244.778 252.766,245.046 253.200,245.240 253.200 C 245.587 253.200,246.313 254.439,248.042 257.985 C 248.521 258.966,249.157 260.014,249.456 260.313 C 249.754 260.612,250.100 261.338,250.223 261.928 C 250.347 262.518,250.621 263.270,250.832 263.600 C 252.845 266.744,252.906 272.396,250.986 277.800 C 250.673 278.680,250.368 280.300,250.309 281.400 L 250.200 283.400 256.000 283.621 C 260.462 283.791,262.149 284.011,263.314 284.573 C 265.147 285.458,265.532 285.184,264.843 283.485 C 262.877 278.640,262.741 266.458,264.644 265.728 C 264.946 265.612,265.402 264.819,265.658 263.965 C 265.914 263.111,266.455 262.112,266.861 261.744 C 267.268 261.377,267.600 260.859,267.600 260.593 C 267.600 260.327,268.140 259.431,268.800 258.600 C 269.460 257.769,270.000 256.839,270.000 256.532 C 270.000 256.226,270.263 255.874,270.585 255.750 C 270.906 255.627,271.274 255.199,271.401 254.798 C 271.528 254.398,272.158 253.379,272.802 252.535 C 273.446 251.691,274.243 250.640,274.573 250.200 C 274.904 249.760,275.980 248.410,276.965 247.200 C 277.951 245.990,278.630 244.873,278.476 244.717 C 278.138 244.378,264.815 244.045,264.626 244.372 M183.781 251.766 C 186.436 252.876,186.782 255.200,184.432 256.141 C 182.841 256.777,182.661 257.064,182.226 259.651 C 182.092 260.449,181.531 261.619,180.980 262.251 C 180.428 262.883,179.829 263.580,179.647 263.800 C 178.163 265.596,176.860 266.155,175.426 265.610 L 174.400 265.220 174.400 258.860 L 174.400 252.500 175.700 251.859 C 177.341 251.050,181.940 250.997,183.781 251.766 M223.899 251.816 C 226.640 252.961,226.891 255.077,224.417 256.192 C 222.982 256.839,222.794 257.103,222.396 259.017 C 222.155 260.180,221.513 261.639,220.968 262.264 C 220.423 262.889,219.829 263.580,219.647 263.800 C 218.163 265.596,216.860 266.155,215.426 265.610 L 214.400 265.220 214.400 259.004 L 214.400 252.788 215.700 251.996 C 217.326 251.004,221.725 250.907,223.899 251.816 M373.755 252.100 L 374.755 253.000 373.767 254.996 C 373.223 256.094,372.599 257.624,372.380 258.396 C 371.674 260.877,369.953 262.475,368.148 262.327 L 366.600 262.200 366.485 257.400 C 366.376 252.900,366.423 252.556,367.229 251.900 C 368.564 250.813,372.458 250.932,373.755 252.100 M70.600 254.449 C 69.720 254.652,68.383 255.107,67.630 255.461 C 65.894 256.276,60.440 256.001,58.485 255.000 C 56.226 253.843,55.995 254.229,56.040 259.087 C 56.093 264.858,56.277 265.432,58.022 265.286 C 58.774 265.223,59.562 264.998,59.774 264.786 C 60.263 264.297,67.710 264.276,68.220 264.762 C 68.429 264.961,69.680 265.186,71.000 265.262 L 73.400 265.400 73.319 260.000 C 73.275 257.030,73.230 254.465,73.220 254.300 C 73.196 253.938,72.697 253.966,70.600 254.449 M377.521 271.844 C 378.021 276.972,371.683 280.970,367.451 278.196 C 366.515 277.583,366.400 277.253,366.400 275.168 C 366.400 272.368,366.743 272.087,370.605 271.727 C 372.036 271.593,373.520 271.241,373.903 270.944 C 375.256 269.895,377.383 270.424,377.521 271.844 "
              stroke="none" fill="#252e3d" fill-rule="evenodd"></path>
        <path id="path2"
              d="M174.517 67.167 C 173.591 67.596,171.971 68.064,170.917 68.209 C 169.862 68.353,168.550 68.785,168.000 69.167 C 167.450 69.549,166.460 70.048,165.800 70.276 C 164.644 70.673,162.833 71.761,160.116 73.689 C 158.817 74.611,157.725 75.944,155.618 79.184 C 154.190 81.379,154.310 81.600,156.931 81.600 C 158.955 81.600,159.062 81.541,160.600 79.600 C 161.471 78.500,162.418 77.600,162.705 77.600 C 162.991 77.600,163.332 77.322,163.462 76.983 C 163.592 76.644,164.351 76.012,165.149 75.579 C 165.947 75.146,166.870 74.625,167.200 74.420 C 169.588 72.942,172.877 71.899,176.723 71.400 C 179.075 71.094,181.664 70.628,182.476 70.362 C 183.683 69.968,184.449 69.996,186.676 70.515 C 188.174 70.865,191.020 71.354,193.000 71.603 C 194.979 71.852,196.869 72.297,197.200 72.591 C 197.530 72.885,198.610 73.340,199.600 73.602 C 200.590 73.864,201.722 74.420,202.116 74.839 C 202.509 75.257,203.030 75.600,203.272 75.600 C 204.082 75.600,207.882 79.150,208.393 80.384 C 209.077 82.035,213.606 82.310,213.593 80.700 C 213.578 78.899,209.033 73.572,206.300 72.151 C 205.695 71.837,205.200 71.433,205.200 71.253 C 205.200 71.074,204.435 70.700,203.500 70.424 C 202.565 70.147,201.530 69.683,201.200 69.391 C 200.870 69.100,199.352 68.573,197.828 68.220 C 196.303 67.867,194.791 67.358,194.467 67.089 C 193.346 66.157,176.559 66.223,174.517 67.167 M211.310 68.645 C 209.724 69.340,214.563 73.022,216.230 72.389 C 217.785 71.797,222.346 71.924,225.016 72.633 C 226.327 72.981,228.561 73.435,229.979 73.642 C 231.398 73.850,232.838 74.267,233.179 74.570 C 233.521 74.873,234.430 75.292,235.200 75.502 C 238.175 76.313,243.562 80.525,244.431 82.720 C 245.031 84.235,249.432 83.883,249.329 82.329 C 249.289 81.739,248.884 80.884,248.429 80.429 C 247.973 79.973,247.600 79.420,247.600 79.200 C 247.600 78.659,243.139 74.400,242.573 74.400 C 242.326 74.400,241.804 74.047,241.414 73.615 C 241.023 73.183,240.050 72.621,239.252 72.364 C 238.453 72.108,237.523 71.658,237.184 71.363 C 236.845 71.069,235.585 70.623,234.384 70.374 C 233.183 70.125,231.750 69.623,231.200 69.260 C 230.206 68.604,212.642 68.061,211.310 68.645 M175.800 78.346 C 174.920 78.506,173.750 78.924,173.200 79.274 C 172.650 79.624,171.503 80.132,170.652 80.402 C 169.529 80.759,169.255 80.989,169.652 81.241 C 170.292 81.646,198.536 81.731,198.938 81.329 C 199.087 81.180,197.902 80.425,196.305 79.653 L 193.400 78.248 185.400 78.152 C 181.000 78.099,176.680 78.186,175.800 78.346 M217.669 78.516 C 217.240 79.034,217.260 79.356,217.785 80.371 L 218.421 81.600 225.110 81.594 C 232.230 81.587,234.002 81.248,231.348 80.398 C 230.497 80.126,229.215 79.550,228.500 79.119 C 226.680 78.021,218.460 77.564,217.669 78.516 M196.617 142.692 C 196.186 142.801,195.466 143.120,195.017 143.401 C 194.568 143.681,193.504 144.132,192.654 144.402 C 190.973 144.935,190.600 145.210,187.905 147.905 C 185.714 150.096,184.800 151.130,184.800 151.417 C 184.800 151.536,184.260 152.788,183.600 154.200 C 181.170 159.398,182.134 168.318,185.581 172.516 C 188.034 175.504,191.977 178.758,193.873 179.360 C 198.197 180.732,207.105 180.285,209.622 178.569 C 210.403 178.036,211.190 177.600,211.369 177.600 C 211.642 177.600,213.866 175.890,214.896 174.888 C 215.797 174.011,217.291 171.900,217.833 170.736 C 218.175 170.001,218.713 168.924,219.029 168.343 C 220.482 165.666,220.076 155.439,218.434 153.352 C 217.975 152.769,217.600 152.038,217.600 151.728 C 217.600 151.418,216.443 150.047,215.028 148.682 C 211.391 145.172,211.052 144.918,209.124 144.258 C 208.176 143.933,206.860 143.383,206.200 143.036 C 205.028 142.419,198.599 142.188,196.617 142.692 "
              stroke="none" fill="#faf4f4" fill-rule="evenodd"></path>
        <path id="path3"
              d="M135.310 47.229 C 133.071 49.582,132.884 49.297,144.049 60.473 C 155.428 71.863,155.705 72.007,158.876 68.228 L 159.951 66.946 149.476 56.495 C 137.647 44.694,137.693 44.725,135.310 47.229 M148.374 56.822 L 158.391 66.844 157.510 68.036 C 155.624 70.588,155.555 70.546,145.931 60.954 C 141.099 56.139,136.605 51.527,135.943 50.705 L 134.740 49.210 135.870 48.024 C 137.657 46.149,137.826 46.269,148.374 56.822 M259.116 84.423 C 257.821 85.178,257.778 87.427,259.023 89.311 C 261.688 93.345,262.000 93.867,262.000 94.291 C 262.000 94.537,262.412 95.247,262.916 95.869 C 263.419 96.491,264.052 97.450,264.322 98.000 C 264.592 98.550,265.344 99.810,265.993 100.800 C 267.184 102.617,268.497 104.776,269.601 106.734 C 269.931 107.320,270.570 108.340,271.020 109.000 C 271.471 109.660,272.058 110.650,272.326 111.200 C 272.594 111.750,273.349 113.010,274.005 114.000 C 274.660 114.990,275.423 116.250,275.700 116.800 C 275.977 117.350,277.057 119.080,278.102 120.645 C 279.146 122.210,280.000 123.682,280.000 123.916 C 280.000 124.618,282.038 126.000,283.072 126.000 C 285.657 126.000,286.618 123.061,284.872 120.496 C 282.822 117.487,282.000 116.116,282.000 115.709 C 282.000 115.463,281.588 114.753,281.084 114.131 C 280.581 113.509,279.948 112.550,279.678 112.000 C 279.408 111.450,278.652 110.190,277.998 109.200 C 277.344 108.210,276.471 106.677,276.059 105.794 C 275.647 104.911,275.015 103.944,274.655 103.645 C 274.295 103.347,274.000 102.876,274.000 102.600 C 274.000 102.324,273.746 101.887,273.434 101.629 C 273.123 101.370,272.488 100.403,272.023 99.480 C 271.558 98.556,270.645 96.990,269.995 96.000 C 269.345 95.010,268.591 93.750,268.320 93.200 C 268.049 92.650,267.416 91.643,266.914 90.962 C 266.411 90.281,266.000 89.580,266.000 89.404 C 266.000 86.671,261.208 83.204,259.116 84.423 M137.291 86.016 C 136.791 86.217,136.270 86.700,136.132 87.090 C 135.994 87.481,135.497 88.340,135.027 89.000 C 134.557 89.660,133.951 90.650,133.680 91.200 C 133.409 91.750,132.653 93.010,132.000 94.000 C 131.347 94.990,130.594 96.250,130.326 96.800 C 130.058 97.350,129.471 98.340,129.020 99.000 C 128.570 99.660,127.931 100.680,127.601 101.266 C 126.480 103.254,125.177 105.394,123.988 107.200 C 123.336 108.190,122.535 109.573,122.207 110.273 C 121.880 110.973,121.414 111.667,121.173 111.817 C 120.931 111.966,120.387 112.833,119.963 113.744 C 119.539 114.655,118.654 116.210,117.997 117.200 C 117.340 118.190,116.512 119.627,116.157 120.393 C 115.802 121.160,115.171 122.219,114.756 122.747 C 113.705 124.083,113.813 125.464,115.058 126.619 C 116.806 128.239,118.629 127.353,120.858 123.800 C 121.410 122.920,122.343 121.470,122.931 120.578 C 123.519 119.687,124.000 118.804,124.000 118.616 C 124.000 118.429,124.411 117.719,124.914 117.038 C 125.416 116.357,126.049 115.350,126.320 114.800 C 126.591 114.250,127.345 112.990,127.995 112.000 C 128.645 111.010,129.558 109.444,130.023 108.520 C 130.488 107.597,131.123 106.630,131.434 106.371 C 131.746 106.113,132.000 105.676,132.000 105.400 C 132.000 105.124,132.295 104.653,132.655 104.355 C 133.015 104.056,133.647 103.089,134.059 102.206 C 134.471 101.323,135.344 99.790,135.998 98.800 C 136.652 97.810,137.408 96.550,137.678 96.000 C 137.948 95.450,138.581 94.491,139.084 93.869 C 139.588 93.247,140.000 92.537,140.000 92.291 C 140.000 92.045,140.467 91.169,141.037 90.346 C 143.158 87.286,140.830 84.594,137.291 86.016 M147.984 90.219 C 147.561 90.729,147.592 91.065,148.162 92.119 C 149.533 94.655,150.215 95.820,151.020 97.000 C 151.471 97.660,152.058 98.650,152.326 99.200 C 152.594 99.750,153.347 101.010,154.000 102.000 C 154.653 102.990,155.409 104.250,155.680 104.800 C 155.951 105.350,156.584 106.357,157.086 107.038 C 157.589 107.719,158.000 108.456,158.000 108.676 C 158.000 108.896,158.355 109.398,158.790 109.791 C 159.224 110.184,159.688 110.846,159.820 111.261 C 159.951 111.677,160.767 113.139,161.632 114.509 C 162.497 115.879,163.504 117.578,163.869 118.284 C 164.981 120.435,164.375 120.400,201.360 120.395 C 240.229 120.388,237.089 120.601,238.810 117.865 C 239.525 116.729,240.504 115.170,240.986 114.400 C 241.467 113.630,242.343 112.270,242.931 111.378 C 243.519 110.487,244.000 109.564,244.000 109.327 C 244.000 109.091,244.295 108.653,244.655 108.355 C 245.015 108.056,245.647 107.089,246.059 106.206 C 246.471 105.323,247.346 103.790,248.003 102.800 C 248.660 101.810,249.458 100.446,249.776 99.768 C 250.094 99.091,250.615 98.320,250.934 98.055 C 251.253 97.790,251.743 96.994,252.023 96.287 C 252.303 95.579,252.781 94.706,253.085 94.348 C 254.584 92.579,255.137 90.867,254.417 90.216 C 253.377 89.274,148.766 89.278,147.984 90.219 M148.550 106.585 C 148.427 106.907,148.605 108.302,148.947 109.685 C 149.289 111.068,149.750 113.685,149.973 115.500 C 150.195 117.315,150.649 119.745,150.980 120.900 C 151.312 122.055,151.756 124.530,151.968 126.400 C 152.179 128.270,152.611 130.524,152.926 131.409 C 153.242 132.294,153.627 134.184,153.783 135.609 C 153.938 137.034,154.412 139.672,154.837 141.472 C 155.261 143.272,155.861 146.512,156.169 148.672 C 156.776 152.920,157.405 155.623,158.155 157.200 L 158.630 158.200 166.964 158.308 C 176.606 158.434,175.887 158.722,177.412 154.113 C 178.051 152.181,178.985 149.990,179.487 149.244 C 179.989 148.498,180.400 147.699,180.400 147.468 C 180.400 145.662,189.164 139.036,193.098 137.867 C 194.219 137.534,195.518 137.058,195.983 136.809 C 198.725 135.342,210.179 136.981,213.154 139.267 C 213.679 139.670,214.309 140.002,214.554 140.004 C 217.418 140.033,226.000 151.963,226.000 155.916 C 226.000 158.188,226.812 158.400,235.515 158.400 C 245.504 158.400,245.359 158.482,246.028 152.491 C 246.242 150.571,246.678 148.190,246.996 147.200 C 247.314 146.210,247.761 143.860,247.989 141.978 C 248.217 140.096,248.682 137.486,249.024 136.178 C 249.365 134.870,249.821 132.360,250.036 130.600 C 250.251 128.840,250.683 126.590,250.996 125.600 C 251.309 124.610,251.760 122.270,252.000 120.400 C 252.239 118.530,252.688 116.100,252.998 115.000 C 254.599 109.312,253.931 104.759,252.010 108.270 C 251.549 109.112,250.651 110.610,250.014 111.600 C 248.602 113.792,246.505 117.302,244.238 121.267 C 242.755 123.863,241.078 125.566,239.012 126.577 L 236.920 127.600 201.438 127.600 C 166.983 127.600,165.906 127.577,164.226 126.812 C 162.449 126.002,159.038 122.581,158.233 120.800 C 157.734 119.695,155.777 116.379,153.984 113.600 C 153.346 112.610,152.438 111.035,151.967 110.100 C 151.497 109.165,150.879 108.400,150.595 108.400 C 150.311 108.400,149.890 107.860,149.660 107.200 C 149.197 105.873,148.889 105.702,148.550 106.585 M158.392 164.609 C 157.982 165.104,158.011 165.689,158.545 167.709 C 158.907 169.079,159.470 172.149,159.796 174.531 C 160.122 176.912,160.638 179.612,160.942 180.531 C 161.247 181.449,161.621 183.637,161.773 185.392 C 161.925 187.148,162.305 189.128,162.616 189.792 C 162.927 190.457,163.368 192.620,163.597 194.600 C 163.825 196.580,164.202 198.920,164.434 199.800 C 165.180 202.629,165.296 203.198,165.147 203.289 C 165.066 203.338,154.251 203.473,141.114 203.589 C 114.914 203.820,116.285 203.677,115.773 206.233 C 115.581 207.194,115.758 207.726,116.600 208.727 L 117.671 210.000 190.666 210.000 L 263.662 210.000 264.831 208.831 C 266.188 207.473,266.325 206.091,265.236 204.744 L 264.472 203.800 250.536 203.600 L 236.600 203.400 236.473 202.079 C 236.403 201.353,236.709 199.553,237.153 198.079 C 237.596 196.606,238.155 193.711,238.394 191.646 C 238.634 189.582,238.979 187.602,239.162 187.246 C 239.537 186.516,240.246 182.536,240.612 179.105 C 240.746 177.843,241.099 176.313,241.395 175.705 C 241.692 175.097,242.147 172.530,242.408 170.000 C 242.669 167.470,242.959 165.274,243.052 165.120 C 243.572 164.265,241.123 163.990,233.916 164.091 L 226.211 164.200 225.290 166.142 C 224.783 167.210,224.127 169.010,223.832 170.142 C 222.530 175.140,215.636 182.406,210.700 183.983 C 209.875 184.246,209.200 184.610,209.200 184.790 C 209.200 186.379,193.856 186.265,192.059 184.662 C 191.696 184.339,190.635 183.871,189.700 183.622 C 188.765 183.373,188.000 183.029,188.000 182.858 C 188.000 182.687,187.325 182.166,186.500 181.700 C 184.239 180.422,181.342 177.460,180.242 175.300 C 179.877 174.585,179.411 174.000,179.205 174.000 C 178.999 174.000,178.629 173.235,178.383 172.300 C 178.136 171.365,177.683 170.206,177.375 169.725 C 177.067 169.244,176.622 167.992,176.387 166.942 C 175.703 163.891,176.051 164.000,167.000 164.000 C 160.230 164.000,158.815 164.100,158.392 164.609 M174.173 165.261 C 175.232 165.743,175.362 166.008,175.798 168.579 C 175.945 169.447,176.411 170.596,176.833 171.133 C 177.255 171.669,177.600 172.380,177.600 172.713 C 177.600 174.397,182.747 180.477,186.000 182.634 C 190.331 185.507,196.584 187.439,201.000 187.269 C 204.131 187.148,208.517 186.194,210.632 185.173 C 211.969 184.528,213.265 184.000,213.512 184.000 C 213.758 184.000,214.104 183.756,214.280 183.458 C 214.456 183.161,215.043 182.684,215.585 182.399 C 216.981 181.665,221.456 177.039,222.243 175.516 C 222.606 174.814,223.146 173.997,223.441 173.702 C 223.737 173.406,224.181 172.407,224.429 171.482 C 224.676 170.557,225.043 169.598,225.245 169.351 C 225.447 169.105,225.888 167.976,226.224 166.842 L 226.836 164.782 234.100 164.891 L 241.365 165.000 241.597 165.985 C 241.928 167.389,241.354 172.166,240.617 174.132 C 240.274 175.049,239.823 177.480,239.617 179.534 C 239.410 181.588,239.032 183.520,238.776 183.829 C 238.520 184.137,238.063 186.525,237.760 189.136 C 237.456 191.747,236.942 194.519,236.617 195.297 C 235.765 197.338,235.347 203.013,235.992 203.791 C 236.427 204.314,238.396 204.400,250.022 204.400 L 263.546 204.400 264.401 205.602 L 265.257 206.804 264.059 208.002 L 262.862 209.200 191.054 209.200 L 119.246 209.200 117.794 208.343 C 116.318 207.473,116.105 206.168,117.248 205.000 C 117.498 204.745,126.201 204.560,141.299 204.491 C 161.419 204.398,165.055 204.293,165.606 203.795 C 166.347 203.124,166.071 198.850,165.220 197.825 C 164.965 197.516,164.576 195.511,164.357 193.369 C 164.138 191.227,163.697 188.848,163.377 188.083 C 163.057 187.318,162.615 185.051,162.395 183.046 C 161.923 178.751,161.705 177.548,161.008 175.400 C 160.501 173.833,159.763 167.587,159.946 166.400 C 160.191 164.807,160.220 164.800,166.769 164.800 C 170.741 164.800,173.545 164.974,174.173 165.261 M270.261 204.196 C 269.216 205.241,269.057 207.081,269.889 208.506 L 270.644 209.800 276.141 209.911 L 281.639 210.023 282.819 208.842 C 284.363 207.299,284.347 205.963,282.769 204.636 C 281.255 203.361,271.441 203.016,270.261 204.196 M282.293 205.709 L 283.065 207.018 281.958 208.109 C 280.021 210.018,270.539 209.512,270.356 207.490 C 270.283 206.687,270.467 205.022,270.664 204.700 C 270.765 204.535,273.249 204.400,276.184 204.400 L 281.521 204.400 282.293 205.709 M314.089 229.271 C 313.227 230.133,313.757 239.290,314.820 241.906 C 315.022 242.404,315.463 246.814,315.799 251.706 C 316.136 256.598,316.574 261.140,316.773 261.800 C 316.972 262.460,317.194 264.877,317.267 267.171 L 317.400 271.343 316.000 271.717 C 313.511 272.382,304.664 271.818,302.862 270.879 C 299.236 268.989,297.422 269.791,298.330 272.883 C 299.025 275.245,299.553 279.315,299.904 285.000 L 300.200 289.800 302.439 289.918 C 303.983 290.000,305.323 289.782,306.754 289.218 C 307.896 288.768,309.138 288.399,309.515 288.398 C 309.892 288.398,311.280 287.858,312.600 287.200 C 313.920 286.542,315.185 286.002,315.411 286.002 C 315.637 286.001,316.130 285.640,316.507 285.200 C 316.884 284.760,317.451 284.400,317.768 284.400 C 319.189 284.400,328.400 274.508,328.400 272.982 C 328.400 272.730,328.750 272.207,329.177 271.821 C 329.605 271.434,330.073 270.551,330.217 269.859 C 330.361 269.166,330.729 268.204,331.035 267.721 C 331.696 266.676,331.248 266.272,329.824 266.630 C 328.032 267.080,327.881 265.857,328.150 253.000 C 328.283 246.620,328.578 239.801,328.806 237.846 C 329.289 233.709,328.829 232.400,326.891 232.400 C 324.875 232.399,319.963 231.290,319.278 230.682 C 318.905 230.351,317.970 229.901,317.200 229.683 C 316.430 229.465,315.525 229.173,315.189 229.035 C 314.853 228.896,314.358 229.002,314.089 229.271 M100.516 229.612 C 98.727 229.800,97.114 230.235,96.268 230.758 C 95.519 231.221,94.675 231.600,94.394 231.600 C 93.100 231.600,85.600 237.758,85.600 238.821 C 85.600 238.965,85.150 239.569,84.600 240.162 C 84.050 240.756,83.600 241.568,83.600 241.967 C 83.600 242.366,83.257 243.128,82.839 243.660 C 82.420 244.193,81.861 245.432,81.597 246.414 C 81.332 247.396,80.852 248.711,80.530 249.335 C 80.207 249.959,79.786 251.996,79.594 253.862 C 79.274 256.959,79.120 257.392,77.822 258.829 C 76.284 260.530,76.184 260.849,76.815 262.027 C 77.043 262.453,77.422 264.376,77.657 266.300 C 77.893 268.224,78.402 270.429,78.788 271.199 C 79.175 271.970,79.610 273.250,79.754 274.045 C 79.898 274.840,80.372 275.813,80.808 276.207 C 81.244 276.601,81.600 277.192,81.600 277.521 C 81.600 279.240,86.532 284.988,89.332 286.532 C 90.197 287.010,91.326 287.632,91.840 287.916 C 93.121 288.622,100.063 288.969,103.019 288.475 C 107.787 287.678,113.483 282.497,114.275 278.239 C 114.401 277.557,114.842 276.438,115.253 275.752 C 116.437 273.777,116.679 270.031,115.701 268.825 L 114.911 267.850 113.811 269.512 C 113.206 270.426,112.402 271.272,112.026 271.392 C 111.649 271.511,110.988 271.938,110.556 272.341 C 103.132 279.257,93.713 274.470,92.572 263.200 C 92.233 259.853,92.098 259.423,91.024 258.264 C 89.903 257.054,89.959 256.687,91.689 253.962 C 96.615 246.197,106.887 244.019,112.114 249.631 C 112.509 250.054,113.259 250.400,113.782 250.400 C 114.305 250.400,114.804 250.613,114.891 250.873 C 114.978 251.133,115.046 248.838,115.043 245.773 C 115.041 242.708,115.255 239.210,115.520 238.000 C 116.200 234.900,116.211 231.239,115.544 230.574 C 114.527 229.562,106.113 229.023,100.516 229.612 M109.461 230.376 C 114.682 230.881,116.202 232.181,114.748 234.897 C 114.499 235.362,114.166 238.683,114.008 242.277 C 113.697 249.349,113.609 249.694,112.400 248.600 C 111.491 247.778,110.394 247.103,108.513 246.211 C 106.573 245.290,100.999 245.383,99.200 246.366 C 98.430 246.786,97.215 247.407,96.500 247.745 C 95.785 248.083,95.200 248.536,95.200 248.753 C 95.200 248.969,94.873 249.250,94.474 249.376 C 94.075 249.503,93.220 250.340,92.574 251.235 C 91.928 252.131,91.109 253.165,90.753 253.532 C 90.397 253.899,89.881 254.920,89.605 255.800 C 89.329 256.680,88.945 257.571,88.752 257.780 C 87.881 258.720,88.384 259.600,89.792 259.600 C 91.388 259.600,91.408 259.650,91.805 264.400 C 91.943 266.050,92.286 267.760,92.567 268.200 C 92.849 268.640,93.296 269.663,93.562 270.474 C 93.972 271.726,95.301 273.185,97.889 275.226 C 99.971 276.867,106.504 276.753,108.211 275.046 C 108.566 274.691,109.086 274.400,109.367 274.400 C 109.647 274.400,110.187 274.056,110.567 273.637 C 110.947 273.217,111.793 272.651,112.448 272.380 C 113.102 272.109,113.920 271.342,114.265 270.675 C 114.812 269.616,114.940 269.549,115.274 270.147 C 115.670 270.854,115.364 273.080,114.769 273.823 C 114.582 274.056,114.156 275.299,113.821 276.585 C 113.486 277.872,112.939 279.226,112.606 279.594 C 112.273 279.962,112.000 280.482,112.000 280.749 C 112.000 281.494,108.351 285.243,107.000 285.885 C 106.340 286.199,105.260 286.753,104.600 287.118 C 102.398 288.334,93.666 288.032,91.703 286.671 C 90.853 286.082,89.958 285.600,89.715 285.600 C 89.021 285.600,84.851 281.489,84.004 279.970 C 83.584 279.216,82.866 277.842,82.409 276.917 C 81.951 275.991,81.414 275.133,81.216 275.010 C 81.017 274.887,80.647 273.788,80.393 272.568 C 80.140 271.348,79.609 269.596,79.213 268.675 C 77.892 265.601,77.758 260.828,78.966 259.833 C 79.857 259.099,80.023 258.540,80.360 255.130 C 80.570 253.001,81.008 250.841,81.333 250.330 C 81.658 249.818,82.045 248.640,82.195 247.712 C 82.344 246.783,82.785 245.613,83.175 245.112 C 83.565 244.610,84.097 243.547,84.357 242.748 C 84.617 241.950,85.183 240.977,85.615 240.586 C 86.047 240.196,86.400 239.714,86.400 239.516 C 86.400 239.005,90.966 234.400,91.473 234.400 C 91.703 234.400,92.321 234.063,92.846 233.651 C 93.371 233.240,95.060 232.389,96.600 231.760 C 98.975 230.791,100.591 230.474,105.200 230.074 C 105.530 230.045,107.447 230.181,109.461 230.376 M316.572 230.400 C 316.850 230.400,317.487 230.755,317.988 231.190 C 318.489 231.624,319.961 232.188,321.259 232.443 C 322.557 232.699,323.716 233.064,323.833 233.254 C 323.951 233.444,324.750 233.600,325.610 233.600 C 328.018 233.600,328.114 234.035,327.624 242.717 C 327.392 246.833,327.201 254.020,327.201 258.690 L 327.200 267.179 328.400 267.800 C 329.840 268.544,329.877 268.925,328.690 270.778 C 328.190 271.560,327.605 272.488,327.390 272.840 C 323.955 278.478,317.584 284.253,313.025 285.862 C 312.149 286.171,311.327 286.594,311.198 286.803 C 311.069 287.011,309.584 287.446,307.897 287.769 C 306.210 288.092,304.475 288.546,304.041 288.778 C 303.608 289.010,302.719 289.200,302.067 289.200 L 300.882 289.200 300.627 283.700 C 300.309 276.843,299.714 271.841,299.196 271.667 C 298.626 271.475,298.708 270.800,299.300 270.802 C 299.575 270.804,300.340 271.088,301.000 271.434 C 304.831 273.444,316.010 273.762,317.858 271.913 C 318.496 271.275,317.955 257.028,317.241 255.661 C 317.051 255.297,316.771 252.840,316.618 250.200 C 316.205 243.060,315.690 238.390,315.256 237.866 C 314.102 236.470,314.292 229.720,315.473 230.173 C 315.799 230.298,316.293 230.400,316.572 230.400 M41.590 231.300 C 40.859 231.795,40.103 232.740,39.910 233.400 C 39.590 234.491,37.966 238.116,37.132 239.600 C 36.947 239.930,36.504 240.830,36.149 241.600 C 35.794 242.370,35.340 243.270,35.142 243.600 C 34.943 243.930,34.419 244.958,33.979 245.883 C 33.538 246.809,32.987 247.684,32.756 247.827 C 32.524 247.971,31.986 248.833,31.561 249.744 C 28.266 256.800,27.616 255.396,28.118 242.307 C 28.510 232.079,28.721 232.599,24.036 232.267 C 22.055 232.126,19.597 231.823,18.573 231.594 C 15.443 230.893,15.540 230.465,15.838 243.759 C 16.099 255.420,15.561 270.577,14.837 271.933 C 14.641 272.300,14.183 275.480,13.819 279.000 C 13.455 282.520,12.987 285.571,12.778 285.780 C 12.294 286.266,12.284 288.681,12.765 288.979 C 13.276 289.294,18.299 288.085,19.356 287.392 C 19.835 287.078,21.540 286.635,23.145 286.408 C 28.287 285.679,28.221 285.822,27.829 276.229 C 27.621 271.134,27.675 269.072,28.038 268.276 C 28.622 266.995,29.054 266.909,29.401 268.002 C 29.541 268.443,30.065 269.298,30.567 269.902 C 31.068 270.506,31.609 271.540,31.769 272.200 C 31.929 272.860,32.384 273.760,32.780 274.200 C 33.177 274.640,33.623 275.680,33.771 276.512 C 33.919 277.343,34.372 278.603,34.776 279.312 C 35.181 280.020,35.633 281.295,35.782 282.143 C 35.931 282.992,36.387 284.432,36.795 285.343 C 37.204 286.255,37.754 287.585,38.017 288.300 C 38.625 289.948,38.618 289.949,41.822 287.800 C 43.298 286.810,44.724 286.000,44.991 286.000 C 45.258 286.000,45.786 285.658,46.164 285.240 C 46.543 284.821,47.437 284.369,48.153 284.235 C 50.398 283.814,52.652 281.412,51.845 280.301 C 51.486 279.805,50.750 278.770,50.209 278.000 C 49.669 277.230,48.688 275.880,48.029 275.000 C 47.371 274.120,46.547 272.776,46.200 272.014 C 45.853 271.252,45.417 270.532,45.232 270.414 C 44.851 270.172,44.154 268.866,41.677 263.756 C 40.729 261.800,39.815 259.940,39.647 259.621 C 39.303 258.974,40.164 256.975,40.988 256.505 C 42.586 255.593,47.893 250.589,50.400 247.630 C 51.390 246.462,52.689 244.987,53.287 244.352 C 54.680 242.874,54.516 242.516,51.079 239.551 C 49.520 238.206,47.785 236.556,47.222 235.885 C 46.660 235.214,45.820 234.291,45.356 233.833 C 44.891 233.375,44.389 232.611,44.240 232.136 C 43.739 230.538,43.040 230.318,41.590 231.300 M20.826 233.214 C 21.223 233.426,22.816 233.600,24.366 233.600 C 27.869 233.600,27.762 233.288,27.189 241.800 C 26.378 253.843,26.332 255.292,26.743 255.703 C 27.286 256.246,29.548 254.907,30.370 253.555 C 30.717 252.985,31.344 251.997,31.764 251.360 C 32.444 250.327,33.002 249.424,34.701 246.600 C 35.885 244.633,40.340 235.292,40.563 234.307 C 40.950 232.605,43.083 231.639,43.578 232.943 C 43.943 233.903,49.357 239.578,51.952 241.720 L 53.305 242.837 52.352 243.918 C 51.829 244.513,51.008 245.450,50.529 246.000 C 48.690 248.111,44.507 252.289,42.400 254.119 C 37.807 258.108,37.427 258.739,38.762 260.160 C 39.223 260.650,39.600 261.341,39.600 261.694 C 39.600 262.432,42.302 267.892,42.827 268.217 C 43.020 268.336,43.541 269.191,43.986 270.117 C 44.431 271.042,45.111 272.268,45.497 272.840 C 46.265 273.977,47.272 275.496,48.187 276.900 C 48.510 277.395,49.297 278.538,49.936 279.440 L 51.099 281.080 49.741 282.164 C 48.994 282.760,47.810 283.447,47.110 283.691 C 46.409 283.936,45.218 284.555,44.462 285.068 C 43.707 285.580,42.852 286.000,42.564 286.000 C 42.276 286.000,41.896 286.240,41.720 286.532 C 41.544 286.825,40.819 287.349,40.109 287.697 L 38.818 288.330 38.411 286.865 C 38.188 286.059,38.003 285.174,38.002 284.899 C 38.001 284.623,37.640 283.725,37.200 282.904 C 36.760 282.084,36.400 281.031,36.400 280.565 C 36.400 280.100,35.971 278.912,35.446 277.925 C 34.922 276.939,34.370 275.574,34.221 274.893 C 34.071 274.212,33.699 273.448,33.395 273.196 C 33.090 272.943,32.632 272.075,32.376 271.268 C 32.121 270.461,31.698 269.620,31.437 269.400 C 31.176 269.180,30.734 268.439,30.455 267.754 C 29.835 266.232,26.879 264.128,26.553 264.977 C 26.324 265.576,26.632 275.626,27.022 280.251 C 27.349 284.133,26.531 285.024,22.074 285.640 C 20.383 285.874,18.698 286.337,18.329 286.668 C 16.993 287.869,13.046 288.020,13.774 286.842 C 13.879 286.673,14.165 284.479,14.411 281.967 C 14.657 279.455,15.095 276.680,15.384 275.800 C 16.289 273.052,16.944 256.889,16.668 244.159 C 16.528 237.757,16.510 232.423,16.627 232.306 C 16.887 232.046,19.833 232.683,20.826 233.214 M169.000 239.954 C 166.580 240.097,164.207 240.436,163.726 240.707 C 163.246 240.978,162.436 241.201,161.926 241.201 C 161.417 241.202,160.410 241.562,159.690 242.002 L 158.380 242.801 159.044 244.086 C 159.562 245.087,159.726 246.664,159.786 251.214 C 159.880 258.270,160.202 259.077,162.180 257.218 C 163.580 255.903,164.200 256.733,164.200 259.924 C 164.200 263.134,163.689 264.000,161.794 264.000 C 159.493 264.000,159.753 265.113,162.784 268.242 C 163.866 269.359,163.863 272.204,162.773 276.711 C 162.319 278.592,161.783 281.406,161.583 282.965 C 161.384 284.524,161.106 286.290,160.966 286.888 C 160.490 288.921,165.909 289.091,168.296 287.118 C 168.569 286.893,170.009 286.615,171.496 286.502 C 175.678 286.182,175.600 286.282,175.600 281.248 C 175.600 276.564,176.002 275.600,177.958 275.600 C 180.444 275.600,181.395 277.340,181.786 282.600 C 182.208 288.278,183.871 290.174,186.186 287.615 C 186.577 287.183,187.550 286.628,188.348 286.382 C 189.147 286.135,190.520 285.603,191.400 285.198 C 192.280 284.793,193.720 284.313,194.600 284.131 C 196.517 283.734,197.019 281.944,195.727 280.110 C 190.970 273.355,189.370 268.446,191.169 266.126 C 192.770 264.062,193.987 261.991,194.246 260.890 C 194.387 260.290,194.822 259.260,195.212 258.600 C 195.603 257.940,196.125 256.069,196.374 254.441 C 196.622 252.814,196.926 251.319,197.049 251.120 C 197.172 250.921,196.718 250.548,196.039 250.292 C 195.162 249.961,194.671 249.417,194.344 248.413 C 194.091 247.636,193.477 246.512,192.980 245.915 C 192.483 245.318,192.014 244.688,191.938 244.515 C 191.647 243.851,188.436 241.947,186.953 241.557 C 186.099 241.332,184.860 240.906,184.200 240.610 C 182.708 239.940,174.915 239.603,169.000 239.954 M209.000 239.956 C 206.580 240.098,204.207 240.436,203.726 240.707 C 203.246 240.978,202.489 241.200,202.045 241.200 C 199.859 241.200,198.471 242.639,199.251 244.096 C 199.509 244.578,199.749 247.530,199.815 251.049 C 199.879 254.412,200.047 257.352,200.189 257.582 C 200.588 258.228,201.918 258.076,202.331 257.338 C 203.292 255.621,204.400 257.815,204.400 261.436 C 204.400 263.374,203.734 264.000,201.669 264.000 C 199.480 264.000,199.799 265.136,202.869 268.271 C 203.826 269.249,203.773 274.910,202.784 277.400 C 201.751 280.001,200.892 287.852,201.566 288.526 C 202.038 288.998,205.890 288.270,207.786 287.350 C 208.439 287.034,210.329 286.666,211.986 286.533 C 216.171 286.196,216.139 286.240,215.802 281.292 C 215.484 276.634,215.891 275.600,218.040 275.600 C 220.507 275.600,221.236 276.916,221.799 282.390 C 222.463 288.849,223.434 289.718,227.160 287.193 C 228.128 286.537,229.170 286.000,229.474 286.000 C 229.779 286.000,230.477 285.706,231.026 285.346 C 231.575 284.986,232.854 284.537,233.869 284.347 C 236.255 283.902,236.856 283.387,236.550 282.054 C 236.321 281.059,236.017 280.511,233.515 276.600 C 232.953 275.720,232.368 274.460,232.216 273.800 C 232.065 273.140,231.583 272.217,231.146 271.748 C 229.945 270.461,230.043 267.940,231.353 266.383 C 231.929 265.699,232.400 264.922,232.400 264.658 C 232.400 264.394,232.714 263.733,233.098 263.189 C 234.593 261.070,236.971 253.845,237.184 250.774 C 237.193 250.650,236.570 250.248,235.800 249.881 C 234.934 249.467,234.400 248.926,234.400 248.461 C 234.400 248.048,233.872 247.045,233.226 246.233 C 232.580 245.420,231.995 244.626,231.926 244.468 C 231.708 243.973,227.889 241.600,227.309 241.600 C 227.005 241.600,226.001 241.259,225.078 240.841 C 223.086 239.941,215.936 239.547,209.000 239.956 M358.200 239.997 C 352.585 240.604,350.016 242.097,351.072 244.139 C 351.549 245.061,351.741 246.770,351.819 250.790 C 351.876 253.765,351.941 256.521,351.962 256.913 C 352.021 258.013,353.138 258.197,354.127 257.269 C 355.348 256.122,355.974 256.661,356.264 259.109 C 356.527 261.333,356.496 261.363,353.604 261.688 C 352.061 261.861,352.201 262.954,354.009 264.859 L 355.662 266.600 355.437 270.951 C 355.314 273.344,355.014 275.542,354.772 275.834 C 354.529 276.127,354.087 278.339,353.789 280.750 C 353.491 283.162,353.028 285.486,352.761 285.915 C 352.143 286.903,352.547 288.000,353.528 288.000 C 353.942 288.000,355.133 288.453,356.173 289.006 C 358.519 290.253,362.026 290.782,368.027 290.792 C 377.082 290.808,381.042 289.123,384.932 283.600 C 387.446 280.030,386.080 268.637,382.995 267.453 C 382.134 267.123,382.261 265.083,383.211 263.987 C 383.657 263.473,384.131 262.591,384.263 262.026 C 384.396 261.462,384.842 260.628,385.253 260.174 C 386.024 259.322,387.232 253.461,387.343 250.039 C 387.396 248.391,387.316 248.249,386.107 247.839 C 385.396 247.597,384.228 246.680,383.512 245.800 C 382.795 244.920,382.082 244.143,381.927 244.074 C 381.772 244.005,380.980 243.420,380.167 242.774 C 379.355 242.128,378.348 241.600,377.929 241.600 C 377.511 241.600,376.440 241.229,375.551 240.775 C 373.667 239.814,363.931 239.377,358.200 239.997 M182.069 241.250 C 182.437 241.440,183.697 241.793,184.869 242.035 C 186.041 242.276,187.671 242.907,188.491 243.437 C 189.312 243.967,190.157 244.400,190.370 244.400 C 190.826 244.400,193.395 248.220,193.765 249.447 C 193.905 249.913,194.376 250.616,194.810 251.009 C 195.855 251.955,195.852 254.536,194.804 256.593 C 194.366 257.452,193.890 258.795,193.746 259.578 C 193.602 260.360,193.061 261.509,192.542 262.131 C 192.024 262.753,191.600 263.504,191.600 263.800 C 191.600 264.096,191.177 264.847,190.660 265.469 C 188.165 268.469,189.183 272.386,194.457 280.084 C 195.876 282.153,195.493 283.082,193.012 283.597 C 190.685 284.081,186.390 286.048,185.610 286.988 C 184.371 288.481,183.193 285.881,182.384 279.869 C 181.772 275.321,180.931 274.182,178.226 274.239 C 174.951 274.307,174.400 275.232,174.400 280.662 C 174.400 285.820,174.790 285.357,170.112 285.767 C 168.744 285.887,166.947 286.348,166.118 286.793 C 164.551 287.632,162.607 287.859,162.228 287.245 C 161.867 286.661,162.712 281.093,163.357 279.800 C 164.481 277.551,164.690 269.389,163.660 267.996 C 162.474 266.392,162.565 265.342,163.952 264.625 C 166.043 263.543,166.534 256.735,164.574 255.990 C 163.082 255.423,162.497 255.503,161.600 256.400 L 160.800 257.200 160.802 256.100 C 160.803 254.896,160.415 245.713,160.283 243.821 C 160.191 242.514,160.175 242.522,165.200 241.570 C 170.754 240.519,180.299 240.338,182.069 241.250 M222.000 241.200 C 222.330 241.362,223.590 241.717,224.800 241.989 C 226.010 242.262,227.671 242.916,228.491 243.442 C 229.312 243.969,230.162 244.400,230.380 244.400 C 230.839 244.400,234.000 249.131,234.000 249.818 C 234.000 250.070,234.360 250.602,234.800 251.000 C 235.938 252.030,235.846 254.848,234.591 257.400 C 234.050 258.500,233.606 259.777,233.604 260.238 C 233.602 260.699,233.268 261.377,232.861 261.744 C 232.455 262.112,231.914 263.111,231.658 263.965 C 231.402 264.819,230.942 265.613,230.637 265.731 C 229.034 266.345,229.042 271.507,230.647 272.839 C 230.948 273.089,231.393 274.032,231.637 274.936 C 231.880 275.839,232.511 277.092,233.039 277.720 C 233.568 278.348,234.000 279.123,234.000 279.443 C 234.000 279.763,234.270 280.129,234.600 280.255 C 236.354 280.928,235.290 283.125,232.978 283.605 C 230.822 284.052,226.829 285.893,225.591 287.010 C 224.324 288.153,223.154 285.425,222.428 279.634 C 221.849 275.017,221.388 274.400,218.517 274.400 C 214.654 274.400,213.053 278.416,214.854 283.583 C 215.447 285.285,215.189 285.426,210.924 285.727 C 209.019 285.861,207.120 286.223,206.629 286.545 C 205.180 287.493,202.894 287.998,202.468 287.463 C 201.984 286.854,202.605 281.870,203.420 279.834 C 204.572 276.954,204.711 268.982,203.629 267.830 C 202.548 266.680,202.641 265.074,203.800 264.861 C 205.394 264.568,205.600 264.033,205.600 260.175 C 205.600 257.963,205.426 256.340,205.173 256.183 C 204.274 255.628,201.907 255.839,201.410 256.518 C 201.003 257.075,200.867 256.058,200.656 250.899 C 200.515 247.435,200.354 244.160,200.299 243.622 C 200.190 242.548,200.315 242.495,205.200 241.570 C 210.603 240.548,220.237 240.335,222.000 241.200 M374.419 241.553 C 375.839 241.993,377.470 242.451,378.045 242.570 C 378.619 242.690,380.469 244.140,382.154 245.794 C 383.840 247.447,385.395 248.800,385.610 248.800 C 386.498 248.800,385.682 257.982,384.692 259.130 C 384.374 259.498,383.914 260.393,383.671 261.119 C 383.428 261.844,382.862 262.903,382.414 263.473 C 381.247 264.957,381.332 267.208,382.600 268.400 C 383.150 268.917,383.600 269.540,383.600 269.785 C 383.600 270.030,383.973 270.944,384.428 271.815 C 387.218 277.152,383.923 286.655,378.867 287.854 C 378.280 287.994,377.484 288.382,377.097 288.718 C 374.973 290.564,360.826 290.221,357.032 288.232 C 355.950 287.664,354.807 287.200,354.493 287.200 C 353.870 287.200,354.063 283.831,354.873 280.600 C 355.792 276.929,356.342 273.207,356.409 270.200 C 356.499 266.156,356.499 266.161,355.895 265.529 C 353.810 263.347,353.899 262.400,356.190 262.400 C 358.024 262.400,358.367 256.672,356.574 255.990 C 355.082 255.423,354.497 255.503,353.600 256.400 L 352.800 257.200 352.771 256.100 C 352.755 255.495,352.761 253.740,352.784 252.200 C 352.807 250.660,352.640 247.969,352.413 246.220 C 351.872 242.062,351.679 242.193,360.400 240.810 C 363.982 240.243,371.473 240.639,374.419 241.553 M141.454 242.203 C 141.090 242.567,140.892 243.026,141.014 243.223 C 141.136 243.420,141.494 245.070,141.810 246.890 C 142.126 248.711,142.670 251.190,143.019 252.400 C 143.815 255.164,143.620 261.711,142.655 264.600 C 142.287 265.700,141.801 267.371,141.574 268.313 C 140.601 272.357,136.111 274.914,133.581 272.865 C 131.084 270.843,131.014 256.058,133.465 248.176 C 134.905 243.547,134.179 240.628,132.065 242.541 C 131.152 243.368,127.440 243.980,123.280 243.992 L 120.359 244.000 119.780 245.387 C 118.509 248.428,119.284 267.537,120.815 270.909 C 121.237 271.839,121.586 272.978,121.591 273.440 C 121.601 274.357,124.044 279.184,125.125 280.423 C 125.496 280.848,126.295 281.677,126.900 282.264 C 127.599 282.942,128.000 283.753,128.000 284.485 C 128.000 287.589,133.193 288.641,139.116 286.738 C 142.729 285.577,147.874 281.488,148.600 279.202 C 148.739 278.761,149.000 278.400,149.179 278.400 C 149.611 278.400,152.400 272.732,152.400 271.854 C 152.400 271.477,152.751 270.479,153.181 269.638 C 153.610 268.796,154.141 266.688,154.360 264.954 C 154.579 263.219,155.031 261.033,155.363 260.095 C 155.774 258.936,156.056 255.916,156.243 250.682 C 156.563 241.682,156.462 241.363,153.471 241.900 C 151.325 242.285,148.957 242.276,145.157 241.869 C 142.572 241.592,142.015 241.642,141.454 242.203 M343.495 242.562 C 343.163 242.894,342.016 243.379,340.946 243.639 C 339.876 243.900,338.550 244.352,338.000 244.644 C 337.450 244.936,336.305 245.450,335.456 245.785 L 333.912 246.396 334.202 250.898 C 334.361 253.374,334.651 255.703,334.846 256.074 C 335.313 256.961,335.305 273.009,334.837 273.905 C 334.223 275.083,333.587 284.828,334.066 285.724 C 334.453 286.447,334.732 286.484,337.544 286.184 C 339.225 286.005,341.716 285.845,343.080 285.829 C 346.689 285.787,346.434 287.260,346.522 265.919 C 346.584 250.928,346.711 246.789,347.124 246.291 C 348.396 244.759,347.564 242.212,345.749 242.079 C 344.675 242.001,343.887 242.170,343.495 242.562 M145.400 243.012 C 147.557 243.789,152.503 243.774,154.027 242.986 C 155.108 242.427,155.237 242.431,155.467 243.030 C 155.825 243.964,155.260 255.391,154.794 256.615 C 154.581 257.175,154.133 259.726,153.797 262.283 C 153.462 264.840,153.016 267.139,152.807 267.392 C 152.597 267.645,152.160 268.920,151.835 270.226 C 150.645 275.012,144.682 284.000,142.696 284.000 C 142.516 284.000,141.880 284.357,141.284 284.793 C 140.183 285.599,136.093 286.377,132.886 286.392 C 130.773 286.402,129.200 285.448,129.200 284.156 C 129.200 283.562,128.505 282.500,127.347 281.325 C 125.341 279.290,124.004 277.334,124.001 276.431 C 124.001 276.119,123.716 275.550,123.370 275.166 C 123.023 274.783,122.496 273.419,122.198 272.135 C 121.901 270.851,121.364 268.810,121.005 267.600 C 120.143 264.692,119.647 248.483,120.354 246.340 L 120.824 244.915 125.712 244.682 C 128.400 244.554,131.175 244.274,131.877 244.059 C 133.498 243.564,133.779 244.344,132.742 246.458 C 132.349 247.260,131.823 249.600,131.574 251.658 C 131.326 253.716,130.949 255.611,130.738 255.869 C 129.660 257.184,131.234 272.206,132.592 273.564 C 135.020 275.992,141.412 273.266,142.223 269.457 C 142.370 268.766,142.873 267.390,143.340 266.400 C 144.522 263.892,144.620 252.088,143.482 249.140 C 141.282 243.439,141.819 241.722,145.400 243.012 M264.495 242.885 C 264.060 243.409,263.237 245.462,262.124 248.800 C 261.793 249.790,260.969 251.735,260.291 253.122 L 259.058 255.643 257.884 254.468 C 256.666 253.250,255.585 250.714,253.935 245.200 L 253.397 243.400 251.598 243.472 C 235.917 244.102,236.753 243.739,240.729 248.200 C 241.121 248.640,241.898 249.720,242.457 250.600 C 243.015 251.480,243.816 252.723,244.236 253.363 C 245.839 255.804,246.925 257.832,250.704 265.455 C 251.837 267.739,251.809 271.812,250.644 274.231 C 250.335 274.874,249.954 276.660,249.799 278.200 C 249.643 279.740,249.265 281.486,248.958 282.080 C 247.773 284.374,248.565 284.740,254.173 284.493 C 257.983 284.324,259.120 284.413,260.654 285.000 C 266.089 287.075,267.436 285.747,265.146 280.571 C 263.899 277.752,263.849 268.544,265.072 266.889 C 265.552 266.239,266.233 265.099,266.586 264.354 C 267.222 263.013,268.286 261.207,269.764 258.961 C 270.184 258.323,270.994 257.084,271.564 256.208 C 273.838 252.715,276.868 248.654,279.100 246.109 C 281.055 243.881,280.024 242.059,277.348 243.013 C 274.871 243.896,268.036 243.675,265.564 242.632 C 265.214 242.484,264.733 242.598,264.495 242.885 M345.870 243.809 C 346.054 244.363,346.078 246.568,345.922 248.709 C 345.767 250.849,345.642 259.573,345.646 268.096 C 345.653 285.781,345.907 284.400,342.656 284.400 C 341.283 284.400,339.985 284.575,339.772 284.788 C 339.558 285.002,338.307 285.227,336.992 285.288 L 334.600 285.400 334.742 283.000 C 334.820 281.680,335.090 280.347,335.342 280.039 C 336.027 279.199,335.987 250.628,335.300 249.940 C 333.915 248.554,334.682 246.911,337.100 246.083 C 341.589 244.545,342.215 244.306,343.600 243.600 C 345.468 242.648,345.483 242.650,345.870 243.809 M278.476 244.717 C 278.630 244.873,277.951 245.990,276.965 247.200 C 275.980 248.410,274.904 249.760,274.573 250.200 C 274.243 250.640,273.446 251.691,272.802 252.535 C 272.158 253.379,271.528 254.398,271.401 254.798 C 271.274 255.199,270.906 255.627,270.585 255.750 C 270.263 255.874,270.000 256.226,270.000 256.532 C 270.000 256.839,269.460 257.769,268.800 258.600 C 268.140 259.431,267.600 260.327,267.600 260.593 C 267.600 260.859,267.268 261.377,266.861 261.744 C 266.455 262.112,265.914 263.111,265.658 263.965 C 265.402 264.819,264.946 265.612,264.644 265.728 C 262.741 266.458,262.877 278.640,264.843 283.485 C 265.532 285.184,265.147 285.458,263.314 284.573 C 262.149 284.011,260.462 283.791,256.000 283.621 L 250.200 283.400 250.309 281.400 C 250.368 280.300,250.673 278.680,250.986 277.800 C 252.906 272.396,252.845 266.744,250.832 263.600 C 250.621 263.270,250.347 262.518,250.223 261.928 C 250.100 261.338,249.754 260.612,249.456 260.313 C 249.157 260.014,248.521 258.966,248.042 257.985 C 246.313 254.439,245.587 253.200,245.240 253.200 C 245.046 253.200,244.778 252.766,244.645 252.235 C 244.511 251.705,244.048 250.850,243.616 250.335 C 242.274 248.741,240.994 247.045,240.313 245.961 L 239.661 244.922 245.848 244.680 C 253.313 244.388,252.994 244.282,253.578 247.251 C 253.838 248.572,254.489 250.478,255.025 251.486 C 255.561 252.494,256.000 253.544,256.000 253.818 C 256.000 255.067,258.835 256.892,259.642 256.162 C 260.059 255.785,260.400 255.256,260.400 254.987 C 260.400 254.718,260.672 254.272,261.004 253.997 C 261.336 253.721,261.902 252.484,262.261 251.248 C 262.620 250.011,263.141 248.640,263.418 248.200 C 263.695 247.760,264.050 246.770,264.208 246.000 C 264.365 245.230,264.554 244.497,264.626 244.372 C 264.815 244.045,278.138 244.378,278.476 244.717 M175.700 251.859 L 174.400 252.500 174.400 258.860 L 174.400 265.220 175.426 265.610 C 176.860 266.155,178.163 265.596,179.647 263.800 C 179.829 263.580,180.428 262.883,180.980 262.251 C 181.531 261.619,182.092 260.449,182.226 259.651 C 182.661 257.064,182.841 256.777,184.432 256.141 C 186.089 255.478,186.391 254.678,185.568 253.140 C 184.569 251.274,178.488 250.485,175.700 251.859 M215.700 251.996 L 214.400 252.788 214.400 259.004 L 214.400 265.220 215.426 265.610 C 216.860 266.155,218.163 265.596,219.647 263.800 C 219.829 263.580,220.423 262.889,220.968 262.264 C 221.513 261.639,222.155 260.180,222.396 259.017 C 222.794 257.103,222.982 256.839,224.417 256.192 C 226.015 255.472,226.502 254.209,225.680 252.916 C 224.572 251.173,218.038 250.570,215.700 251.996 M367.229 251.900 C 366.423 252.556,366.376 252.900,366.485 257.400 L 366.600 262.200 368.148 262.327 C 369.953 262.475,371.674 260.877,372.380 258.396 C 372.599 257.624,373.223 256.094,373.767 254.996 L 374.755 253.000 373.755 252.100 C 372.458 250.932,368.564 250.813,367.229 251.900 M183.643 252.692 C 184.586 253.660,184.468 255.168,183.428 255.429 C 182.203 255.736,181.600 256.684,181.600 258.305 C 181.600 259.696,179.710 262.673,178.044 263.904 L 176.841 264.794 176.220 263.908 C 175.739 263.220,175.600 261.883,175.600 257.922 L 175.600 252.823 176.900 252.423 C 178.300 251.992,183.150 252.185,183.643 252.692 M223.705 252.619 C 224.813 253.044,224.607 254.977,223.394 255.530 C 222.298 256.029,221.779 257.007,221.416 259.256 C 221.248 260.292,220.586 261.315,219.116 262.808 L 217.052 264.905 216.326 264.008 C 215.567 263.071,215.312 255.920,215.954 253.615 C 216.367 252.134,220.918 251.550,223.705 252.619 M372.918 252.758 C 373.118 252.958,373.017 253.599,372.681 254.254 C 372.359 254.884,371.960 256.210,371.796 257.200 C 371.622 258.250,371.126 259.345,370.606 259.828 C 370.116 260.283,369.636 260.892,369.540 261.181 C 369.425 261.525,369.061 261.610,368.482 261.426 C 367.270 261.041,367.115 253.473,368.300 252.533 C 369.044 251.942,372.258 252.098,372.918 252.758 M72.532 252.828 C 71.652 253.708,63.069 255.088,61.777 254.556 C 56.271 252.292,55.200 253.184,55.200 260.035 C 55.200 266.775,55.208 266.785,59.863 265.989 C 62.620 265.518,67.626 265.631,71.631 266.257 C 74.117 266.645,74.319 266.107,74.209 259.390 C 74.111 253.426,73.668 251.692,72.532 252.828 M73.220 254.300 C 73.230 254.465,73.275 257.030,73.319 260.000 L 73.400 265.400 71.000 265.262 C 69.680 265.186,68.429 264.961,68.220 264.762 C 67.710 264.276,60.263 264.297,59.774 264.786 C 59.562 264.998,58.774 265.223,58.022 265.286 C 56.277 265.432,56.093 264.858,56.040 259.087 C 55.995 254.229,56.226 253.843,58.485 255.000 C 60.440 256.001,65.894 256.276,67.630 255.461 C 69.788 254.447,73.183 253.742,73.220 254.300 M373.903 270.944 C 373.520 271.241,372.036 271.593,370.605 271.727 C 366.743 272.087,366.400 272.368,366.400 275.168 C 366.400 280.636,374.026 280.726,376.601 275.287 C 378.397 271.495,376.706 268.772,373.903 270.944 M375.964 274.127 C 375.764 274.824,375.600 275.413,375.600 275.436 C 375.600 275.813,373.861 277.273,373.040 277.585 C 369.924 278.769,367.349 277.701,367.726 275.380 C 368.063 273.305,368.570 272.886,371.128 272.571 C 372.378 272.417,373.760 272.155,374.200 271.990 C 375.508 271.497,376.406 272.585,375.964 274.127 "
              stroke="none" fill="#781c1c" fill-rule="evenodd"></path>
        <path id="path4"
              d="M176.325 65.597 C 174.261 65.762,172.457 66.133,171.883 66.509 C 171.352 66.857,170.216 67.269,169.358 67.424 C 167.643 67.734,166.499 68.243,165.680 69.063 C 165.384 69.358,164.859 69.600,164.513 69.600 C 163.098 69.600,155.600 75.662,155.600 76.807 C 155.600 77.006,155.225 77.518,154.767 77.945 C 154.309 78.371,153.840 79.426,153.724 80.289 C 153.122 84.782,159.872 83.923,162.409 79.183 C 162.639 78.753,163.090 78.400,163.411 78.400 C 163.731 78.400,164.218 78.040,164.493 77.600 C 164.768 77.160,165.194 76.800,165.440 76.800 C 165.687 76.800,166.550 76.351,167.359 75.802 C 168.168 75.253,169.678 74.593,170.715 74.336 C 171.752 74.078,173.293 73.510,174.139 73.073 C 176.549 71.829,191.717 71.879,194.476 73.141 C 195.508 73.612,197.245 74.190,198.336 74.424 C 199.428 74.658,200.636 75.198,201.022 75.625 C 201.408 76.051,201.987 76.400,202.308 76.400 C 202.810 76.400,206.861 80.267,208.278 82.101 C 209.587 83.794,214.800 83.145,214.800 81.288 C 214.800 80.136,214.061 77.931,213.445 77.245 C 209.951 73.353,208.200 71.600,207.809 71.600 C 207.551 71.600,206.931 71.165,206.432 70.634 C 205.933 70.102,205.046 69.548,204.462 69.403 C 203.878 69.257,203.127 68.892,202.794 68.591 C 202.460 68.291,201.324 67.852,200.268 67.615 C 199.213 67.379,197.923 66.906,197.401 66.564 C 195.604 65.386,185.006 64.900,176.325 65.597 M194.467 67.089 C 194.791 67.358,196.303 67.867,197.828 68.220 C 199.352 68.573,200.870 69.100,201.200 69.391 C 201.530 69.683,202.565 70.147,203.500 70.424 C 204.435 70.700,205.200 71.074,205.200 71.253 C 205.200 71.433,205.695 71.837,206.300 72.151 C 209.033 73.572,213.578 78.899,213.593 80.700 C 213.606 82.310,209.077 82.035,208.393 80.384 C 207.882 79.150,204.082 75.600,203.272 75.600 C 203.030 75.600,202.509 75.257,202.116 74.839 C 201.722 74.420,200.590 73.864,199.600 73.602 C 198.610 73.340,197.530 72.885,197.200 72.591 C 196.869 72.297,194.979 71.852,193.000 71.603 C 191.020 71.354,188.174 70.865,186.676 70.515 C 184.449 69.996,183.683 69.968,182.476 70.362 C 181.664 70.628,179.075 71.094,176.723 71.400 C 172.877 71.899,169.588 72.942,167.200 74.420 C 166.870 74.625,165.947 75.146,165.149 75.579 C 164.351 76.012,163.592 76.644,163.462 76.983 C 163.332 77.322,162.991 77.600,162.705 77.600 C 162.418 77.600,161.471 78.500,160.600 79.600 C 159.062 81.541,158.955 81.600,156.931 81.600 C 154.310 81.600,154.190 81.379,155.618 79.184 C 157.725 75.944,158.817 74.611,160.116 73.689 C 162.833 71.761,164.644 70.673,165.800 70.276 C 166.460 70.048,167.450 69.549,168.000 69.167 C 168.550 68.785,169.862 68.353,170.917 68.209 C 171.971 68.064,173.591 67.596,174.517 67.167 C 176.559 66.223,193.346 66.157,194.467 67.089 M211.895 67.544 C 208.849 68.014,208.489 68.704,210.292 70.615 C 213.410 73.923,213.551 73.966,221.743 74.151 C 228.629 74.306,229.204 74.378,231.274 75.358 C 232.486 75.931,233.830 76.400,234.261 76.400 C 234.692 76.400,235.655 76.850,236.400 77.400 C 237.145 77.950,238.005 78.400,238.310 78.400 C 238.951 78.400,243.600 82.929,243.600 83.554 C 243.600 84.197,244.859 84.727,247.085 85.023 C 250.680 85.499,251.833 82.761,249.441 79.428 C 248.153 77.634,243.937 73.600,243.350 73.600 C 243.063 73.600,242.643 73.254,242.417 72.832 C 242.191 72.410,241.389 71.860,240.635 71.612 C 239.881 71.363,239.052 70.903,238.792 70.590 C 238.532 70.277,237.663 69.904,236.860 69.760 C 236.057 69.616,234.435 69.049,233.257 68.500 C 230.976 67.437,216.727 66.800,211.895 67.544 M231.200 69.260 C 231.750 69.623,233.183 70.125,234.384 70.374 C 235.585 70.623,236.845 71.069,237.184 71.363 C 237.523 71.658,238.453 72.108,239.252 72.364 C 240.050 72.621,241.023 73.183,241.414 73.615 C 241.804 74.047,242.326 74.400,242.573 74.400 C 243.139 74.400,247.600 78.659,247.600 79.200 C 247.600 79.420,247.973 79.973,248.429 80.429 C 248.884 80.884,249.289 81.739,249.329 82.329 C 249.432 83.883,245.031 84.235,244.431 82.720 C 243.562 80.525,238.175 76.313,235.200 75.502 C 234.430 75.292,233.521 74.873,233.179 74.570 C 232.838 74.267,231.398 73.850,229.979 73.642 C 228.561 73.435,226.327 72.981,225.016 72.633 C 222.346 71.924,217.785 71.797,216.230 72.389 C 214.563 73.022,209.724 69.340,211.310 68.645 C 212.642 68.061,230.206 68.604,231.200 69.260 M177.716 76.604 C 177.241 76.936,175.986 77.327,174.927 77.472 C 171.977 77.875,167.600 80.237,167.600 81.425 C 167.600 83.123,168.356 83.200,185.093 83.200 L 201.039 83.200 200.871 81.759 C 200.729 80.545,200.475 80.225,199.251 79.719 C 198.453 79.390,197.515 78.868,197.167 78.559 C 196.819 78.250,195.473 77.801,194.175 77.562 C 192.878 77.322,191.326 76.872,190.728 76.563 C 189.128 75.735,178.910 75.768,177.716 76.604 M216.423 76.572 C 216.162 76.887,215.849 78.102,215.729 79.272 L 215.510 81.400 217.366 82.300 C 219.432 83.302,231.962 83.677,233.626 82.786 C 235.999 81.516,231.811 78.120,227.073 77.472 C 226.014 77.327,224.759 76.936,224.284 76.604 C 223.104 75.778,217.103 75.753,216.423 76.572 M196.305 79.653 C 197.902 80.425,199.087 81.180,198.938 81.329 C 198.536 81.731,170.292 81.646,169.652 81.241 C 169.255 80.989,169.529 80.759,170.652 80.402 C 171.503 80.132,172.650 79.624,173.200 79.274 C 174.815 78.245,176.935 78.050,185.400 78.152 L 193.400 78.248 196.305 79.653 M228.500 79.119 C 229.215 79.550,230.497 80.126,231.348 80.398 C 234.002 81.248,232.230 81.587,225.110 81.594 L 218.421 81.600 217.785 80.371 C 217.260 79.356,217.240 79.034,217.669 78.516 C 218.460 77.564,226.680 78.021,228.500 79.119 M197.800 141.619 C 194.587 141.839,189.600 143.788,189.600 144.824 C 189.600 145.044,189.285 145.339,188.900 145.479 C 187.963 145.819,185.610 148.084,185.604 148.651 C 185.602 148.899,185.255 149.349,184.834 149.651 C 183.832 150.368,181.600 154.648,181.600 155.851 C 181.600 156.366,181.390 157.574,181.133 158.533 C 180.421 161.198,181.395 168.495,182.665 170.004 C 183.179 170.615,183.600 171.331,183.600 171.594 C 183.600 172.747,188.686 178.182,190.200 178.646 C 190.640 178.781,191.360 179.209,191.800 179.597 C 192.240 179.984,193.267 180.420,194.083 180.566 C 194.899 180.711,196.069 181.092,196.683 181.412 C 198.203 182.205,204.708 182.220,205.831 181.433 C 206.277 181.121,207.296 180.743,208.097 180.593 C 208.898 180.443,210.139 179.888,210.854 179.360 C 211.570 178.832,212.345 178.398,212.578 178.396 C 214.438 178.377,219.752 171.126,220.593 167.461 C 220.904 166.108,221.384 164.235,221.662 163.300 C 222.068 161.930,222.066 161.270,221.656 159.900 C 221.376 158.965,220.886 156.951,220.568 155.425 C 220.221 153.760,219.671 152.353,219.195 151.909 C 218.758 151.502,218.400 150.938,218.400 150.657 C 218.400 150.375,217.995 149.768,217.500 149.308 C 217.005 148.849,216.272 148.001,215.872 147.423 C 215.124 146.347,213.389 145.085,209.828 143.030 C 207.521 141.698,203.513 141.228,197.800 141.619 M206.200 143.036 C 206.860 143.383,208.176 143.933,209.124 144.258 C 211.052 144.918,211.391 145.172,215.028 148.682 C 216.443 150.047,217.600 151.418,217.600 151.728 C 217.600 152.038,217.975 152.769,218.434 153.352 C 220.076 155.439,220.482 165.666,219.029 168.343 C 218.713 168.924,218.175 170.001,217.833 170.736 C 217.291 171.900,215.797 174.011,214.896 174.888 C 213.866 175.890,211.642 177.600,211.369 177.600 C 211.190 177.600,210.403 178.036,209.622 178.569 C 207.105 180.285,198.197 180.732,193.873 179.360 C 191.977 178.758,188.034 175.504,185.581 172.516 C 182.134 168.318,181.170 159.398,183.600 154.200 C 184.260 152.788,184.800 151.536,184.800 151.417 C 184.800 151.130,185.714 150.096,187.905 147.905 C 190.600 145.210,190.973 144.935,192.654 144.402 C 193.504 144.132,194.568 143.681,195.017 143.401 C 196.882 142.236,204.224 141.996,206.200 143.036 "
              stroke="none" fill="#e4acac" fill-rule="evenodd"></path>
    </g>
</svg>